<svg version="1.1" id="Layer_1" xmlns="http://www.w3.org/2000/svg" xmlns:xlink="http://www.w3.org/1999/xlink" x="0px" y="0px"
	 width="100%" viewBox="0 0 1095 1008" enable-background="new 0 0 1095 1008" xml:space="preserve">
<path fill="#FD0101" opacity="1.000000" stroke="none" 
	d="
M540.000000,1.000000 
	C544.689270,1.000000 549.378479,1.000000 554.721313,1.348851 
	C561.256714,2.106139 567.138672,2.514575 573.453979,2.935578 
	C575.908325,3.011957 577.929260,3.075769 580.213379,3.375019 
	C582.653687,3.725381 584.830933,3.840307 587.376465,3.961630 
	C588.479980,4.012134 589.215149,4.056242 590.110229,4.306581 
	C590.871033,4.415274 591.472046,4.317733 592.441406,4.243668 
	C594.526733,4.532386 596.243530,4.797629 598.059570,5.221297 
	C598.458374,5.292116 598.757996,5.204510 599.470459,5.117862 
	C603.196655,5.523739 606.510071,5.928659 609.917847,6.589385 
	C610.683105,6.864476 611.353943,6.883761 612.415649,6.928676 
	C613.849243,7.015997 614.891968,7.077690 616.092163,7.388751 
	C617.169922,7.742898 618.090271,7.847676 619.336548,7.968886 
	C620.095886,8.023819 620.529297,8.062320 621.182251,8.331933 
	C622.601990,8.549578 623.802063,8.536111 625.288940,8.430489 
	C625.731018,8.211118 625.886414,8.083901 626.019714,7.976842 
	C625.997681,7.997000 625.991028,7.937734 626.148560,8.275436 
	C634.477112,10.150594 642.648132,11.688047 651.053101,13.519575 
	C652.624390,14.245044 653.961670,14.676439 655.527466,15.313831 
	C656.840515,15.603912 657.925171,15.687995 659.432983,15.927917 
	C661.052979,16.094749 662.249878,16.105743 663.475403,16.072285 
	C663.504089,16.027832 663.486084,16.132099 663.666626,16.390989 
	C664.415405,16.853542 664.983643,17.057205 665.734985,17.536484 
	C667.423096,17.916040 668.928284,18.019976 670.463379,18.090973 
	C670.493286,18.058031 670.502197,18.146629 670.682312,18.399042 
	C671.414978,18.862577 671.967590,19.073700 672.734253,19.572578 
	C684.459656,23.924215 695.957764,28.026258 707.500183,31.999485 
	C708.813721,32.451641 710.376221,32.180798 712.045654,32.524300 
	C714.449036,33.595791 716.630005,34.388184 718.928894,35.505081 
	C724.512451,37.922489 729.978149,40.015396 735.468506,42.063900 
	C735.493225,42.019501 735.482971,42.120598 735.708740,42.441750 
	C736.430420,42.874920 736.926392,42.986946 737.453491,43.071274 
	C737.484680,43.043575 737.490173,43.126812 737.763245,43.455021 
	C738.840942,43.887341 739.645569,43.991451 740.473999,44.053303 
	C740.497742,44.011040 740.478210,44.106106 740.686523,44.454269 
	C741.406860,44.896694 741.918884,44.990955 742.459839,45.052841 
	C742.488831,45.020458 742.477417,45.106598 742.685913,45.455734 
	C743.407532,45.897598 743.920593,45.990318 744.461914,46.050064 
	C744.490112,46.017086 744.478271,46.103081 744.687866,46.448761 
	C745.409119,46.891960 745.920898,46.989483 746.461304,47.052906 
	C746.489990,47.018806 746.477783,47.107094 746.692383,47.444328 
	C747.412048,47.885948 747.917053,47.990334 748.452637,48.064316 
	C748.483276,48.033913 748.478516,48.120041 748.695679,48.456795 
	C749.417847,48.891617 749.922913,48.989681 750.457275,49.056007 
	C750.486572,49.024273 750.478271,49.110245 750.689575,49.452721 
	C751.409668,49.893665 751.918457,49.992134 752.457153,50.057907 
	C752.487061,50.025208 752.476135,50.113079 752.687134,50.458473 
	C753.407532,50.899426 753.916809,50.994976 754.455688,51.059174 
	C754.485168,51.027813 754.478516,51.113644 754.689941,51.457821 
	C755.411133,51.896675 755.920837,51.991352 756.461121,52.051704 
	C756.491638,52.017380 756.469238,52.106461 756.617188,52.422867 
	C757.193726,52.816284 757.622314,52.893291 758.024536,52.983322 
	C757.998291,52.996346 758.030579,52.947369 757.954834,53.301071 
	C762.602661,56.091484 767.326294,58.528194 772.024658,60.981323 
	C771.999390,60.997738 772.028625,60.945057 772.026855,61.245399 
	C772.371155,61.692017 772.717102,61.838295 773.031982,61.990173 
	C773.000793,61.995773 773.013000,61.933605 773.035889,62.279617 
	C777.071777,65.070358 781.084778,67.515091 785.055969,69.966599 
	C785.014099,69.973366 785.008911,69.888718 785.168274,70.134178 
	C785.869690,70.528313 786.411682,70.676987 787.312439,70.915085 
	C789.490967,72.399803 791.310730,73.795120 793.308105,75.399094 
	C794.018188,75.734436 794.550720,75.861122 795.047363,75.989090 
	C795.011475,75.990364 795.017090,75.918739 795.064697,76.258972 
	C808.515808,86.741127 821.901611,96.906525 835.336975,107.005943 
	C838.153442,109.123062 841.152405,110.997406 844.034546,112.989922 
	C844.001831,112.996216 844.002380,112.929596 844.052368,113.214493 
	C844.431458,113.664818 844.760620,113.830231 845.047241,113.997505 
	C845.004761,113.999359 845.002075,113.914345 845.052429,114.222122 
	C845.709961,114.950333 846.317200,115.370773 847.201660,115.913925 
	C848.190308,116.747002 848.901733,117.457352 849.798096,118.463226 
	C859.931580,128.906631 869.869385,139.065109 879.860168,149.171188 
	C880.357849,149.674683 881.315918,149.723190 882.030884,149.991577 
	C882.002136,149.999588 882.020386,149.942856 881.966492,150.207123 
	C881.947754,150.647736 881.982849,150.824097 882.079895,151.335693 
	C886.458740,156.441864 890.775513,161.212814 895.333008,166.045135 
	C895.877869,166.303101 896.034485,166.582413 896.076416,167.241135 
	C896.671326,167.973618 897.233521,168.409393 897.907227,169.181274 
	C900.372253,172.216660 902.974854,174.740936 905.022400,177.655151 
	C908.314331,182.340225 911.239502,187.282928 914.427490,192.384735 
	C915.335938,193.372330 916.136475,194.091995 917.038269,194.827240 
	C917.139587,194.842789 917.167358,195.045914 917.178406,195.325119 
	C917.725464,196.012009 918.261414,196.419693 918.885010,197.125549 
	C919.027222,197.623520 919.081909,197.823318 919.235840,198.229370 
	C919.526550,198.689194 919.774719,198.861359 920.045288,198.975845 
	C920.011169,198.999634 920.052917,198.927673 920.029419,199.299484 
	C922.280090,203.463989 924.419128,207.346985 926.872559,211.019958 
	C928.739380,213.814728 931.005493,216.342743 933.051880,218.991577 
	C933.009766,218.993713 933.008850,218.909424 933.032654,219.238342 
	C933.633362,220.310059 934.210266,221.052872 934.877197,222.104340 
	C935.019470,222.620819 935.071777,222.828674 935.148193,223.343811 
	C935.741150,224.665359 936.309998,225.679596 937.010986,226.754868 
	C937.143066,226.815903 937.231323,227.093338 937.240601,227.402771 
	C938.096680,228.735001 938.943542,229.757812 939.883301,231.103012 
	C940.044983,231.638229 940.113831,231.851059 940.245789,232.209656 
	C940.416260,232.554199 940.579895,232.679855 940.904053,233.058502 
	C941.397583,233.937271 941.786926,234.489899 942.178223,235.380646 
	C943.048950,237.054092 943.917603,238.389435 944.868652,239.991241 
	C944.953857,240.443588 944.956665,240.629501 944.925171,241.203598 
	C948.687561,249.468781 952.429810,257.372833 956.318420,265.204193 
	C957.321716,267.224670 958.784729,269.016907 960.036316,270.932068 
	C960.036133,270.950165 960.070740,270.960876 960.070862,271.352417 
	C961.073364,273.832367 962.075745,275.920807 963.038330,278.006104 
	C962.998535,278.002991 963.003845,277.923279 962.966919,278.325287 
	C965.229980,283.969788 967.530029,289.212311 969.888733,294.487732 
	C969.947388,294.520630 969.876160,294.634735 969.845581,295.048279 
	C970.563049,296.636047 971.311096,297.810272 972.031128,298.992554 
	C972.003052,299.000641 972.033203,298.950623 971.879517,299.311157 
	C971.815002,300.445953 971.904175,301.220215 971.884521,302.047394 
	C971.775818,302.100281 971.814880,302.421539 971.814880,302.421539 
	C971.814880,302.421539 972.009766,302.010712 972.273682,302.098022 
	C972.708374,302.113190 972.879089,302.041107 973.025940,301.985107 
	C973.002136,302.001190 973.030945,301.951660 972.884094,302.306519 
	C973.118042,303.283356 973.498779,303.905365 973.933960,304.516022 
	C973.988464,304.504669 973.886963,304.550323 973.765259,304.892151 
	C974.387695,306.996826 975.131897,308.759674 975.928467,310.510376 
	C975.980896,310.498199 975.889709,310.555359 975.791870,311.017517 
	C976.101013,313.909119 976.317505,316.389252 976.948608,318.759033 
	C979.492126,328.310608 982.116821,337.841431 984.809265,347.352234 
	C986.027039,351.653839 987.473755,355.890686 988.898804,360.549774 
	C990.256042,368.674774 991.531067,376.406891 992.572327,384.424805 
	C992.276672,385.532104 992.085693,386.367401 992.172119,387.172943 
	C993.514221,399.674774 994.862793,412.176208 996.317810,424.665161 
	C996.434204,425.664368 997.342712,426.571320 997.939636,427.518738 
	C997.996155,427.516296 997.885315,427.541809 997.752319,428.010040 
	C997.699951,431.558716 997.780640,434.639130 997.637451,438.091553 
	C997.559082,448.745117 997.704468,459.026672 997.785156,469.708618 
	C997.528076,472.745728 997.335571,475.382477 996.880188,478.330933 
	C994.288696,498.167542 991.960083,517.692444 989.457886,537.576660 
	C987.203308,546.935730 985.208435,555.956604 983.015869,564.929138 
	C981.064087,572.916687 978.893433,580.850769 976.541138,589.040283 
	C975.278015,592.805176 974.293274,596.338318 973.115479,600.191284 
	C968.802002,610.938293 965.281677,621.654785 960.426575,631.727966 
	C952.245117,648.702271 943.206848,665.263306 934.552551,682.010315 
	C932.601868,685.785095 930.748535,689.610168 928.805054,693.584351 
	C928.759705,693.756592 928.460205,693.949280 928.170898,694.035583 
	C925.755554,696.834839 923.531311,699.477173 921.522217,702.274048 
	C915.856995,710.160339 910.594727,718.358398 904.586426,725.970093 
	C897.551086,734.882629 889.896484,743.306396 882.279175,752.232544 
	C871.284302,763.376038 860.520691,774.229065 849.444336,785.122314 
	C842.686584,791.108887 836.430542,797.278320 829.744812,802.940369 
	C822.710754,808.897522 815.265808,814.369446 807.662231,820.104065 
	C803.015869,822.953491 798.583252,825.579651 794.420654,828.580383 
	C774.547546,842.906677 752.903809,854.093140 730.602112,863.949463 
	C717.872742,869.575195 704.540405,873.822937 691.559814,878.896240 
	C666.335083,888.755249 640.083252,894.359802 613.389771,898.279053 
	C610.835999,898.654053 608.429626,900.033081 605.980469,900.969849 
	C606.006042,900.993591 605.973755,900.930115 605.606201,900.747070 
	C598.460999,901.073792 591.683289,901.583557 584.447754,902.050659 
	C574.903931,902.447876 565.815979,903.286682 556.732422,903.240540 
	C540.181396,903.156433 523.633057,902.547485 506.669037,902.070435 
	C470.479156,898.213745 435.414948,891.057495 400.975952,879.613647 
	C398.732635,878.694946 396.673737,878.158325 394.671661,877.458862 
	C369.879608,868.798340 346.931824,856.146118 323.542664,844.462280 
	C317.052094,841.219971 310.831116,837.437927 304.330444,833.856934 
	C304.174469,833.810303 304.003845,833.533020 303.906738,833.245728 
	C298.030670,829.287109 292.251740,825.615723 286.310822,821.883423 
	C286.148865,821.822449 285.959045,821.533020 285.890411,821.238037 
	C279.338684,816.225891 272.855591,811.508728 266.282104,806.793945 
	C266.191772,806.796326 266.171844,806.616699 266.067383,806.315186 
	C262.640350,803.054504 259.317749,800.095337 255.853394,796.829224 
	C250.164490,791.685547 244.617340,786.848816 238.971939,781.774658 
	C238.586380,781.367859 238.299103,781.198486 237.801575,780.895264 
	C237.591339,780.761353 237.132355,780.566833 237.054291,780.252319 
	C228.158600,770.356018 219.370193,760.747070 210.495728,751.218323 
	C208.945801,749.554138 207.033829,748.227173 205.177795,746.455078 
	C204.418365,745.734558 203.770218,745.303345 203.087402,744.884338 
	C203.052719,744.896545 203.101959,744.951172 203.105896,744.645630 
	C202.720276,743.909119 202.330704,743.478210 201.767181,742.916382 
	C201.593216,742.785400 201.207031,742.584290 201.137146,742.253906 
	C199.139420,739.531799 197.211578,737.140076 195.170868,734.459961 
	C194.408112,733.741760 193.758179,733.311890 193.073837,732.895569 
	C193.039429,732.909119 193.095932,732.956848 193.097687,732.654602 
	C192.723129,731.918884 192.346832,731.485413 191.857056,730.777283 
	C191.161438,729.984863 190.579285,729.467102 189.864029,728.639404 
	C179.094437,712.474121 167.976974,696.916443 157.938782,680.691040 
	C144.264130,658.587830 133.339111,635.055054 124.270699,610.678955 
	C122.556213,606.070312 120.676147,601.523376 118.891022,596.566284 
	C113.535103,574.695740 108.170631,553.204285 102.732826,531.731384 
	C102.585632,531.150208 101.646416,530.769531 100.709106,530.054688 
	C99.921204,524.292725 99.500725,518.771362 99.293686,512.928345 
	C98.600945,504.080139 97.694756,495.553497 96.859810,486.560181 
	C96.353432,477.987701 95.775803,469.881927 95.200317,461.333496 
	C95.197868,456.998901 95.193283,453.106903 95.425957,448.868103 
	C96.057289,442.416229 96.391853,436.306610 96.858147,430.207031 
	C97.753181,418.498993 98.777992,406.800507 99.583321,395.086639 
	C99.671524,393.803741 98.676224,392.446350 98.179657,390.747131 
	C98.522514,389.465881 98.869171,388.560944 99.559601,387.604553 
	C100.799683,383.429657 101.856979,379.333313 102.556923,375.176849 
	C103.802063,367.782745 104.830841,360.352203 105.985321,352.529480 
	C106.417442,350.328094 106.814354,348.534180 107.545990,346.696045 
	C108.395447,345.659149 109.079315,344.717834 109.399277,343.665802 
	C113.500374,330.181763 117.580627,316.691162 121.587433,303.178864 
	C122.472710,300.193420 123.051338,297.117004 123.884827,293.690735 
	C125.362839,289.783295 126.727180,286.267609 128.418091,282.724060 
	C132.222824,275.321686 135.866287,268.019257 139.122452,260.548004 
	C141.387390,255.351074 143.120316,249.922302 145.068909,244.559570 
	C145.046890,244.522049 145.126984,244.488052 145.438141,244.268692 
	C145.860031,243.569366 145.970764,243.089417 146.061859,242.569000 
	C146.042221,242.528564 146.127243,242.499313 146.414093,242.336411 
	C146.789017,241.768295 146.877106,241.363083 146.979889,240.980286 
	C146.994598,241.002701 146.955902,240.962631 147.319672,241.049194 
	C148.427338,240.085403 149.171249,239.035049 150.174103,237.769287 
	C158.217590,225.047180 166.023834,212.553772 173.730072,199.998978 
	C174.169373,199.283264 173.790405,198.065323 173.906372,196.763702 
	C174.082230,196.230072 174.143936,196.013824 174.552795,195.819687 
	C176.010025,194.999893 177.359726,194.346527 178.193237,193.287064 
	C186.771881,182.382812 195.282211,171.424545 203.736252,160.423462 
	C204.122116,159.921326 203.791000,158.868210 203.936111,157.762054 
	C205.411499,156.236725 206.744598,155.021042 208.405731,153.792084 
	C209.419083,153.342987 210.221848,153.021210 210.772247,152.454391 
	C219.667221,143.293686 228.571899,134.141296 237.342697,124.862556 
	C238.338333,123.809273 238.540283,122.005753 239.127197,120.431946 
	C239.144135,120.313789 239.549088,120.110596 239.956711,120.213402 
	C240.908173,120.203415 241.452026,120.090630 242.333527,119.926758 
	C246.551331,116.597527 250.536026,113.433372 254.276550,110.002983 
	C256.979065,107.524544 259.357117,104.692314 262.015381,101.699310 
	C264.818542,99.120712 267.377472,96.714203 270.178680,94.634010 
	C274.689270,91.284431 279.359741,88.150162 284.341675,84.915459 
	C287.690430,83.282890 290.823181,81.895836 293.593018,79.983208 
	C298.125854,76.853180 302.422516,73.381172 306.969208,69.726044 
	C313.805664,65.668091 320.491760,61.937508 327.532410,58.153728 
	C328.583313,57.381275 329.279572,56.662010 329.988098,55.969795 
	C330.000366,55.996845 329.947144,55.970531 330.332733,56.071419 
	C335.638550,53.981674 340.611237,51.898685 345.449432,49.539787 
	C347.059937,48.754581 348.325562,47.261982 349.793518,45.963539 
	C349.838165,45.834301 350.099640,45.754215 350.486816,45.795357 
	C352.324585,45.609299 353.902191,45.673702 355.204803,45.106567 
	C362.471741,41.942707 369.691650,38.667747 376.870026,35.307667 
	C377.751312,34.895161 378.288574,33.747738 378.993073,32.969040 
	C379.000885,32.997196 378.945953,32.977276 379.284546,33.016899 
	C379.924927,32.740990 380.226715,32.425453 380.516968,32.059059 
	C380.505463,32.008202 380.551453,32.101891 380.976013,32.218025 
	C382.264832,32.206459 383.129089,32.078758 384.382080,31.953991 
	C389.583313,30.287500 394.419983,28.683945 399.200897,26.928555 
	C403.280273,25.430742 407.295532,23.758471 411.584442,22.056511 
	C412.059021,21.679071 412.288300,21.408501 412.510559,21.086781 
	C412.503510,21.035633 412.563690,21.119545 412.991119,21.196785 
	C414.272614,21.176685 415.126709,21.079346 416.170105,21.168976 
	C416.990753,20.918945 417.622070,20.481945 418.376923,19.826859 
	C418.521942,19.443062 418.543427,19.277351 418.545593,19.056828 
	C418.526276,19.002010 418.552460,19.111900 418.970306,19.215637 
	C420.100098,18.917583 420.812012,18.515795 421.514893,18.062710 
	C421.505859,18.011412 421.550446,18.105619 421.972412,18.238209 
	C423.756470,17.961109 425.118530,17.551416 426.496033,17.104820 
	C426.511414,17.067915 426.572052,17.120035 426.996277,17.192829 
	C428.270142,17.204496 429.119751,17.143373 430.208771,17.271315 
	C432.110779,16.737654 433.773376,16.014929 435.689087,15.282789 
	C436.281281,15.222538 436.620392,15.171700 437.163696,15.282373 
	C438.056244,15.059564 438.744598,14.675242 439.687378,14.280340 
	C440.282562,14.216949 440.623260,14.164137 441.166412,14.276171 
	C442.071167,14.071492 442.773499,13.701967 443.785950,13.321140 
	C444.723633,13.222645 445.351166,13.135452 446.170746,13.224780 
	C447.032837,13.009415 447.702911,12.617529 448.641296,12.222567 
	C449.267578,12.162491 449.625549,12.105492 450.174011,12.225510 
	C451.062988,12.040532 451.761444,11.678535 452.774170,11.316925 
	C453.718445,11.234776 454.348419,11.152242 455.201599,11.270344 
	C456.407562,11.055592 457.390350,10.640204 458.646393,10.225924 
	C459.282104,10.175626 459.644501,10.124220 460.447510,10.075531 
	C467.925812,8.705408 474.963562,7.332569 482.448730,6.037572 
	C486.745819,5.459941 490.595459,4.804468 494.468781,4.109456 
	C494.492432,4.069917 494.562408,4.129861 494.911499,4.264244 
	C496.467102,4.544953 497.673553,4.691278 499.221954,4.901816 
	C500.394836,4.700380 501.225830,4.434732 502.448914,4.134918 
	C503.889709,4.054647 504.938416,4.008543 506.229340,4.224520 
	C509.986664,3.999585 513.501770,3.512567 517.343994,3.007066 
	C518.107300,2.968660 518.543457,2.948738 519.228027,3.193715 
	C524.870544,3.297029 530.273743,3.265222 535.652954,2.889531 
	C537.138733,2.785764 538.552917,1.657953 540.000000,1.000000 
M657.196411,300.821533 
	C657.831665,296.597321 658.466919,292.373077 659.241821,287.220093 
	C632.572937,287.220093 606.741272,287.220093 580.623169,287.220093 
	C580.895081,285.220276 580.945374,284.057800 581.219299,282.950653 
	C591.023376,243.327942 600.850098,203.710815 610.669861,164.091949 
	C615.559326,144.364899 620.400696,124.625786 625.366089,104.917892 
	C626.197205,101.619316 626.070374,99.915054 621.970276,99.096664 
	C616.257751,97.956444 613.022705,99.804062 609.655823,104.454956 
	C572.455261,155.843384 532.272156,204.661667 484.875610,247.141220 
	C443.206696,284.487335 397.366394,315.207062 344.756317,335.163879 
	C336.411285,338.329376 337.461243,336.387939 337.570007,346.070587 
	C337.619843,350.509491 339.171356,351.647888 343.422485,351.656036 
	C366.418762,351.700104 389.414673,352.015533 412.410187,352.279388 
	C414.475189,352.303101 416.536774,352.626373 418.971344,352.843658 
	C418.556641,355.094513 418.340424,356.722260 417.952484,358.307983 
	C403.224213,418.508942 388.724243,478.767639 373.553864,538.857056 
	C370.089203,552.580505 369.085754,566.044922 371.018829,579.884460 
	C374.952759,608.048584 387.380341,630.860596 413.123016,644.731506 
	C434.974518,656.505737 458.819031,660.548218 483.252380,659.368713 
	C508.030243,658.172485 532.727173,655.309021 557.462036,653.204102 
	C560.880554,652.913208 564.312988,652.786194 568.714233,652.525513 
	C557.300110,703.889709 546.088379,754.342957 534.749939,805.366638 
	C536.963257,805.560364 538.395752,805.794861 539.828308,805.795227 
	C582.158264,805.805725 624.488403,805.738403 666.817871,805.876709 
	C670.650818,805.889221 672.030945,804.498352 672.825317,801.019287 
	C684.062256,751.805420 695.400085,702.614502 706.712219,653.417786 
	C724.669617,575.320496 742.629333,497.223755 760.569885,419.122589 
	C761.190247,416.421997 761.615417,413.676575 762.181030,410.691010 
	C760.510254,410.473206 759.386719,410.199646 758.262939,410.198608 
	C716.599670,410.159698 674.936218,410.180847 633.273254,410.063202 
	C629.912781,410.053711 628.661011,411.448822 627.779785,414.432129 
	C621.928467,434.240997 615.910339,454.000549 609.972839,473.784058 
	C600.586121,505.060333 591.284302,536.362549 581.715210,567.582825 
	C581.001160,569.912354 578.775330,572.946411 576.678223,573.507507 
	C549.080750,580.891357 525.339844,563.144165 521.609802,541.017456 
	C519.902100,530.887573 521.136108,521.081604 523.658386,511.347748 
	C536.363220,462.318665 549.207458,413.325562 561.794189,364.266296 
	C562.906799,359.929688 564.876099,358.924561 569.009155,358.973877 
	C593.837830,359.270264 618.670166,359.246185 643.499268,359.517151 
	C647.276733,359.558380 648.697754,358.370972 649.223328,354.584412 
	C651.673767,336.929504 654.423950,319.316132 657.196411,300.821533 
M745.494385,48.425549 
	C745.494385,48.425549 745.546265,48.396675 745.494385,48.425549 
z"/>
<path fill="#070707" opacity="1.000000" stroke="none" 
	d="
M1091.000000,1009.000000 
	C729.970642,1009.000000 368.941254,1009.000000 7.455212,1008.531372 
	C6.998523,851.441223 6.998523,694.819702 6.998523,537.890625 
	C39.039097,537.890625 70.481873,537.890625 102.007339,538.291931 
	C103.403336,544.609009 104.456322,550.597412 106.082291,556.425964 
	C109.866562,569.991455 113.926880,583.480042 117.926056,597.388550 
	C124.845985,614.781677 130.982330,632.129089 138.746429,648.714539 
	C152.318680,677.707397 169.227753,704.779541 189.174759,730.277222 
	C190.536194,732.011963 191.773148,733.445862 193.011368,734.930603 
	C193.012634,734.981506 193.114426,734.983948 193.193893,735.257690 
	C193.829178,736.038269 194.385010,736.545044 195.082672,737.356079 
	C197.145386,739.783508 199.066269,741.906860 201.031372,744.339294 
	C201.719376,745.395142 202.363159,746.141846 203.008606,746.936829 
	C203.010254,746.985107 203.106812,746.988220 203.190002,747.260315 
	C203.828796,748.038269 204.384415,748.544128 205.080200,749.359009 
	C209.796753,754.821899 214.167053,760.179138 219.002670,765.076904 
	C224.783813,770.932251 230.962845,776.394714 237.103699,782.333740 
	C243.152115,787.766846 249.066345,792.893677 255.117981,798.325012 
	C258.894226,801.291931 262.533051,803.954285 266.171875,806.616699 
	C266.171844,806.616699 266.191772,806.796326 266.331787,807.122070 
	C272.967529,812.142883 279.463287,816.837952 285.959045,821.533020 
	C285.959045,821.533020 286.148865,821.822449 286.354370,822.191895 
	C292.374573,826.218506 298.189209,829.875793 304.003845,833.533020 
	C304.003845,833.533020 304.174469,833.810303 304.367004,834.170227 
	C305.061584,834.946716 305.526123,835.421692 306.071014,835.771545 
	C325.370178,848.163940 345.409729,859.186401 366.637665,867.921875 
	C376.978363,872.177185 387.490845,876.015076 398.156067,880.333374 
	C409.147186,883.763550 419.780731,887.470215 430.697052,889.913147 
	C448.839203,893.972961 467.141632,897.335327 485.420837,900.754456 
	C492.546844,902.087402 499.792755,902.779114 507.445648,903.856812 
	C512.229980,903.986572 516.552917,904.070435 520.875305,904.050232 
	C542.262756,903.950317 563.649963,903.822876 585.442810,903.751160 
	C587.953857,903.478577 590.056885,903.142273 592.165405,902.844910 
	C596.766724,902.196167 601.370789,901.567261 605.973755,900.930115 
	C605.973755,900.930115 606.006042,900.993591 606.424438,900.971497 
	C621.102295,898.490662 635.541748,896.784607 649.585266,893.423706 
	C683.684937,885.263123 716.669617,873.784668 748.022766,857.877686 
	C769.265015,847.100403 789.879272,835.306396 809.299194,820.869263 
	C815.705017,816.225647 822.026917,811.995300 827.831665,807.145874 
	C836.014832,800.309204 843.815063,793.014160 852.080750,785.753540 
	C859.234192,779.204834 866.145813,772.880188 872.900330,766.391846 
	C874.871338,764.498413 876.394531,762.138733 878.339294,759.916504 
	C878.848328,759.640137 878.945679,759.369751 879.114624,758.833862 
	C880.567505,757.330383 881.753418,756.022095 883.265747,754.666443 
	C895.412170,739.542114 907.363525,724.565125 918.974670,709.328918 
	C922.607849,704.561584 925.324219,699.095520 928.460205,693.949280 
	C928.460205,693.949280 928.759705,693.756592 929.103027,693.527405 
	C934.926025,684.085693 940.670044,675.018555 945.831604,665.631042 
	C957.382996,644.621765 966.549866,622.535828 974.752136,599.619629 
	C975.901245,595.819214 976.938232,592.390869 978.270752,588.741089 
	C979.081177,586.616028 979.634705,584.721802 980.104736,582.807007 
	C983.777405,567.843140 987.434021,552.875366 991.556641,537.950317 
	C1024.931763,537.991882 1057.845947,537.991882 1091.000000,537.991882 
	C1091.000000,695.368591 1091.000000,852.184265 1091.000000,1009.000000 
z"/>
<path fill="#FFFFFF" opacity="1.000000" stroke="none" 
	d="
M1091.500000,1009.000000 
	C1091.000000,852.184265 1091.000000,695.368591 1091.000000,537.991882 
	C1057.845947,537.991882 1024.931763,537.991882 991.568176,537.947876 
	C991.118713,537.903931 991.108521,537.877075 991.071472,537.473999 
	C992.329346,530.166443 993.997253,523.306824 994.833130,516.347290 
	C996.126282,505.579773 996.850952,494.743958 997.904114,483.554321 
	C997.939697,482.127197 997.887878,481.082855 997.912354,479.713501 
	C998.029114,478.946075 998.069458,478.503662 998.490417,477.841858 
	C998.921448,461.936829 998.993042,446.251099 998.973145,430.565491 
	C998.971863,429.557129 998.264282,428.549683 997.885315,427.541809 
	C997.885315,427.541809 997.996155,427.516296 997.989624,427.130554 
	C997.936035,426.489075 997.888977,426.233398 997.915039,425.572205 
	C997.931274,423.802734 997.874512,422.438751 997.881775,420.636414 
	C997.304260,412.304352 996.903564,404.380646 995.923706,396.529205 
	C995.400269,392.334778 993.877747,388.265015 992.806091,384.139008 
	C991.531067,376.406891 990.256042,368.674774 988.982056,360.106110 
	C987.994568,354.090027 987.368896,348.808197 985.943359,343.751831 
	C982.806458,332.625916 979.265625,321.613892 975.889709,310.555359 
	C975.889709,310.555359 975.980896,310.498199 975.988403,310.084290 
	C975.292908,307.963684 974.589966,306.256989 973.886963,304.550323 
	C973.886963,304.550323 973.988464,304.504669 973.993530,304.127289 
	C973.676086,303.150482 973.353516,302.551056 973.030945,301.951660 
	C973.030945,301.951660 973.002136,302.001190 973.005249,301.628723 
	C972.683289,300.487701 972.358276,299.719147 972.033203,298.950623 
	C972.033203,298.950623 972.003052,299.000641 972.006470,298.626404 
	C971.298584,297.046387 970.587341,295.840576 969.876160,294.634735 
	C969.876160,294.634735 969.947388,294.520630 969.962708,294.059448 
	C967.653320,288.373291 965.328613,283.148285 963.003845,277.923279 
	C963.003845,277.923279 962.998535,278.002991 962.972900,277.635803 
	C961.988464,275.166016 961.029602,273.063446 960.070740,270.960876 
	C960.070740,270.960876 960.036133,270.950165 959.990845,270.556366 
	C955.962891,261.052246 952.032776,251.918015 947.918762,242.867386 
	C947.492188,241.928940 945.972168,241.487488 944.959534,240.815414 
	C944.956665,240.629501 944.953857,240.443588 944.768433,239.704163 
	C943.782654,237.781265 942.979431,236.411896 942.176270,235.042542 
	C941.786926,234.489899 941.397583,233.937271 940.911865,232.877472 
	C940.669006,232.135330 940.458069,232.033203 940.182617,232.063904 
	C940.113831,231.851059 940.044983,231.638229 939.813477,230.818359 
	C938.844238,229.171982 938.037781,228.132660 937.231323,227.093338 
	C937.231323,227.093338 937.143066,226.815903 937.039917,226.443726 
	C936.332581,225.059860 935.728333,224.048187 935.124146,223.036514 
	C935.071777,222.828674 935.019470,222.620819 934.811829,221.816727 
	C934.107239,220.450119 933.558044,219.679764 933.008850,218.909424 
	C933.008850,218.909424 933.009766,218.993713 933.004395,218.612900 
	C928.683716,211.797272 924.368347,205.362473 920.052917,198.927673 
	C920.052917,198.927673 920.011169,198.999634 919.969299,198.747223 
	C919.756714,198.181808 919.493103,198.024567 919.136658,198.023132 
	C919.081909,197.823318 919.027222,197.623520 918.864380,196.867859 
	C918.226624,195.889969 917.696960,195.467941 917.167358,195.045898 
	C917.167358,195.045914 917.139587,194.842789 916.919800,194.545135 
	C915.906555,193.537277 915.113098,192.827042 914.319580,192.116821 
	C911.239502,187.282928 908.314331,182.340225 905.022400,177.655151 
	C902.974854,174.740936 900.372253,172.216660 897.882996,168.909088 
	C897.179382,167.848679 896.611511,167.396561 896.043701,166.944427 
	C896.034485,166.582413 895.877869,166.303101 895.282349,165.675140 
	C891.031494,160.481781 887.071899,155.719727 883.027771,150.698364 
	C882.635559,150.273636 882.328003,150.108246 882.020386,149.942856 
	C882.020386,149.942856 882.002136,149.999588 882.008057,149.636627 
	C881.841492,148.833908 881.785339,148.278397 881.479675,147.971207 
	C872.011780,138.454803 862.544373,128.937500 852.985413,119.513138 
	C852.191162,118.730103 850.752502,118.600723 849.613159,118.167686 
	C848.901733,117.457352 848.190308,116.747002 847.110718,115.656998 
	C846.162415,114.823006 845.582275,114.368668 845.002075,113.914337 
	C845.002075,113.914345 845.004761,113.999359 844.971558,113.728729 
	C844.626404,113.281929 844.314392,113.105766 844.002380,112.929596 
	C844.002380,112.929596 844.001831,112.996216 843.928589,112.667610 
	C832.101074,102.864639 820.464294,93.238403 808.527954,83.999191 
	C804.407959,80.810135 799.542175,78.584473 795.017090,75.918747 
	C795.017090,75.918739 795.011475,75.990364 794.929016,75.706436 
	C794.274536,75.345154 793.702515,75.267799 793.130493,75.190445 
	C791.310730,73.795120 789.490967,72.399803 787.203613,70.644257 
	C786.160339,70.152260 785.584656,70.020493 785.008911,69.888718 
	C785.008911,69.888718 785.014099,69.973366 785.011414,69.598434 
	C781.010132,66.793541 777.011597,64.363571 773.013000,61.933605 
	C773.013000,61.933605 773.000793,61.995773 772.981201,61.717499 
	C772.650635,61.274498 772.339600,61.109779 772.028625,60.945057 
	C772.028625,60.945057 771.999390,60.997738 771.909790,60.640942 
	C767.223694,57.838547 762.627136,55.392948 758.030579,52.947357 
	C758.030579,52.947369 757.998291,52.996346 757.915161,52.644623 
	C757.377808,52.230755 756.923523,52.168606 756.469238,52.106461 
	C756.469238,52.106461 756.491638,52.017380 756.227051,51.727074 
	C755.467773,51.329060 754.973145,51.221352 754.478516,51.113644 
	C754.478516,51.113644 754.485168,51.027813 754.223450,50.732635 
	C753.466553,50.329334 752.971313,50.221207 752.476135,50.113083 
	C752.476135,50.113079 752.487061,50.025208 752.224426,49.732079 
	C751.467285,49.329384 750.972778,49.219818 750.478271,49.110249 
	C750.478271,49.110245 750.486572,49.024273 750.223145,48.732422 
	C749.466003,48.333725 748.972229,48.226879 748.478516,48.120037 
	C748.478516,48.120041 748.483276,48.033913 748.222351,47.736595 
	C747.466858,47.328548 746.972351,47.217823 746.477783,47.107098 
	C746.477783,47.107094 746.489990,47.018806 746.226807,46.727707 
	C745.468445,46.325439 744.973389,46.214264 744.478271,46.103088 
	C744.478271,46.103081 744.490112,46.017086 744.226318,45.726238 
	C743.467468,45.325794 742.972412,45.216198 742.477417,45.106602 
	C742.477417,45.106598 742.488831,45.020458 742.225586,44.728104 
	C741.467651,44.325871 740.972961,44.215988 740.478210,44.106106 
	C740.478210,44.106106 740.497742,44.011040 740.221313,43.710773 
	C739.126648,43.315941 738.308411,43.221375 737.490173,43.126808 
	C737.490173,43.126812 737.484680,43.043575 737.222656,42.745216 
	C736.468079,42.338104 735.975525,42.229351 735.482971,42.120598 
	C735.482971,42.120598 735.493225,42.019501 735.236328,41.745842 
	C729.589905,39.374981 724.200500,37.277775 718.811035,35.180573 
	C716.630005,34.388184 714.449036,33.595791 712.080566,32.118099 
	C709.339539,30.502766 706.810608,29.496822 704.227905,28.656099 
	C694.203430,25.392984 684.161865,22.182417 673.943054,18.589249 
	C672.673645,18.199692 671.587952,18.173161 670.502197,18.146629 
	C670.502197,18.146629 670.493286,18.058031 670.245422,17.774883 
	C669.038696,17.312700 668.079834,17.133667 666.936768,16.590281 
	C665.663757,16.194653 664.574890,16.163376 663.486084,16.132099 
	C663.486084,16.132099 663.504089,16.027832 663.234985,15.735023 
	C661.647095,15.362432 660.328430,15.282647 658.637817,15.137445 
	C657.276978,15.083962 656.288025,15.095897 655.299011,15.107833 
	C653.961670,14.676439 652.624390,14.245044 651.066162,13.095523 
	C642.560486,10.897510 634.275757,9.417622 625.991028,7.937734 
	C625.991028,7.937734 625.997681,7.997000 625.884277,7.620522 
	C624.514038,7.217515 623.257263,7.190986 621.628662,6.973538 
	C612.195068,5.518454 603.135010,4.241926 594.070801,2.995007 
	C589.050720,2.304420 584.023804,1.663371 579.000000,0.999998 
	C751.277039,1.000000 923.554016,1.000000 1095.915527,1.000000 
	C1095.915527,336.999969 1095.915527,673.000000 1095.915527,1009.000000 
	C1094.665649,1009.000000 1093.332764,1009.000000 1091.500000,1009.000000 
z"/>
<path fill="#FFFFFF" opacity="1.000000" stroke="none" 
	d="
M101.924652,537.890625 
	C70.481873,537.890625 39.039097,537.890625 6.998523,537.890625 
	C6.998523,694.819702 6.998523,851.441223 6.999261,1008.531372 
	C5.000573,1009.000000 3.001145,1009.000000 1.001288,1009.000000 
	C1.000859,673.096741 1.000859,337.193512 1.000859,1.000000 
	C172.020782,1.000000 343.041748,1.000000 514.357300,1.400245 
	C512.673340,1.861224 510.673584,1.760174 508.720215,2.014841 
	C503.989471,2.631616 499.280273,3.414137 494.562408,4.129860 
	C494.562408,4.129861 494.492432,4.069917 493.980652,4.048003 
	C489.654449,4.413910 485.840027,4.801731 481.602631,5.118237 
	C478.946777,5.356696 476.690460,5.551293 474.485809,5.999829 
	C469.643219,6.985047 464.826782,8.098716 459.621460,9.083462 
	C458.119263,9.323102 456.995300,9.639235 455.646515,9.982607 
	C455.421722,10.009847 454.996002,10.164382 454.618774,10.086544 
	C453.119995,10.324373 451.998474,10.640039 450.650940,10.983926 
	C450.424896,11.012146 449.995880,11.165386 449.621307,11.087646 
	C448.132050,11.314813 447.017365,11.619719 445.950439,11.953072 
	C445.998199,11.981519 445.924011,11.898668 445.547882,11.942801 
	C444.070282,12.309123 442.968811,12.631314 441.644836,12.980251 
	C441.422333,13.006996 441.000824,13.159402 440.645844,13.083012 
	C439.486176,13.323352 438.681458,13.640081 437.653015,13.982931 
	C437.429260,14.009051 437.004333,14.158798 436.648438,14.080629 
	C435.485321,14.319916 434.678070,14.637370 433.644165,14.981514 
	C433.417511,15.008204 432.986664,15.159060 432.636353,15.081348 
	C431.491943,15.310289 430.697876,15.616941 429.952026,15.953281 
	C430.000214,15.982969 429.922607,15.900402 429.544006,15.943830 
	C428.300964,16.364851 427.436523,16.742445 426.572052,17.120037 
	C426.572052,17.120035 426.511414,17.067915 426.043518,17.040947 
	C424.233917,17.377861 422.892181,17.741739 421.550446,18.105619 
	C421.550446,18.105619 421.505859,18.011412 421.088074,18.007196 
	C419.964325,18.372622 419.258392,18.742262 418.552460,19.111900 
	C418.552460,19.111900 418.526276,19.002010 418.152893,19.001894 
	C417.156067,19.314159 416.532593,19.626543 415.951385,19.959904 
	C415.993652,19.980881 415.937500,19.905045 415.556030,19.949350 
	C414.304260,20.368954 413.433960,20.744251 412.563690,21.119547 
	C412.563690,21.119545 412.503510,21.035633 412.083405,21.022816 
	C410.695190,21.351227 409.727081,21.692453 408.485901,22.012527 
	C400.126312,24.949545 392.039734,27.907717 383.570648,30.922928 
	C382.309235,31.353939 381.430328,31.727909 380.551453,32.101883 
	C380.551453,32.101891 380.505463,32.008202 380.162842,32.012817 
	C379.528778,32.337379 379.237366,32.657326 378.945953,32.977272 
	C378.945953,32.977276 379.000885,32.997196 378.602325,32.990631 
	C375.528290,33.989197 372.773407,34.824699 370.192749,36.032467 
	C363.454376,39.186089 356.792206,42.502640 350.099640,45.754219 
	C350.099640,45.754215 349.838165,45.834301 349.433716,45.940926 
	C342.668549,49.355209 336.307831,52.662872 329.947144,55.970531 
	C329.947144,55.970531 330.000366,55.996845 329.637146,55.989677 
	C328.575226,56.723980 327.876526,57.465450 327.177826,58.206924 
	C320.491760,61.937508 313.805664,65.668091 306.616455,69.725006 
	C298.729767,75.009193 291.346222,79.967064 283.962677,84.924927 
	C279.359741,88.150162 274.689270,91.284431 270.178680,94.634010 
	C267.377472,96.714203 264.818542,99.120712 261.667969,101.714088 
	C254.776062,107.661400 248.367020,113.275375 241.601959,118.941116 
	C240.680313,119.365456 240.114700,119.738022 239.549088,120.110596 
	C239.549088,120.110596 239.144135,120.313789 238.838150,120.652222 
	C230.532715,128.966263 222.434113,136.846191 214.591187,144.972839 
	C212.072998,147.582123 210.229767,150.842758 208.077728,153.805389 
	C206.744598,155.021042 205.411499,156.236725 203.644958,157.888000 
	C193.542892,170.814941 183.874268,183.306259 174.205658,195.797592 
	C174.143936,196.013824 174.082230,196.230072 173.608414,196.894455 
	C168.606094,204.280045 163.816406,211.095642 159.483063,218.190002 
	C155.344788,224.965012 151.681656,232.030258 147.524475,239.076508 
	C147.144806,239.777603 147.050354,240.370117 146.955902,240.962631 
	C146.955902,240.962631 146.994598,241.002701 146.645325,241.083115 
	C146.239777,241.608795 146.183517,242.054047 146.127243,242.499313 
	C146.127243,242.499313 146.042221,242.528564 145.736664,242.785980 
	C145.329742,243.524948 145.228363,244.006500 145.126984,244.488052 
	C145.126984,244.488052 145.046890,244.522049 144.745605,244.774170 
	C138.993408,257.601501 133.542465,270.176727 128.091522,282.751923 
	C126.727180,286.267609 125.362839,289.783295 123.576126,293.838501 
	C119.753677,303.943237 116.047539,313.413757 113.050423,323.103577 
	C110.656281,330.843994 109.125343,338.851349 107.211273,346.740234 
	C106.814354,348.534180 106.417442,350.328094 105.632103,352.699585 
	C104.256805,357.281677 103.008163,361.243073 102.339973,365.300079 
	C101.117554,372.722260 100.238235,380.200928 99.215820,387.656036 
	C98.869171,388.560944 98.522514,389.465881 98.107979,391.163971 
	C97.009056,406.278381 95.978012,420.599640 94.561005,435.131592 
	C94.114349,447.923126 94.038818,460.503937 94.034203,473.084717 
	C94.033958,473.753754 94.632401,474.423004 94.970520,475.547119 
	C95.053200,479.677856 95.117493,483.353607 95.115646,487.448181 
	C95.361870,490.413574 95.587082,492.974487 96.004051,495.503784 
	C96.980583,501.427246 98.049011,507.335541 99.080238,513.250000 
	C99.500725,518.771362 99.921204,524.292725 100.681839,530.437012 
	C101.322876,533.336792 101.623764,535.613708 101.924652,537.890625 
z"/>
<path fill="#790505" opacity="1.000000" stroke="none" 
	d="
M578.533142,0.999998 
	C584.023804,1.663371 589.050720,2.304420 594.070801,2.995007 
	C603.135010,4.241926 612.195068,5.518454 621.630005,7.147439 
	C622.003113,7.512259 622.006348,7.860055 621.744080,7.914366 
	C621.308838,8.012724 621.135803,8.056771 620.962708,8.100821 
	C620.529297,8.062320 620.095886,8.023819 619.111084,7.722173 
	C617.684692,7.352479 616.809631,7.245932 615.934631,7.139383 
	C614.891968,7.077690 613.849243,7.015997 612.208130,6.703360 
	C611.014282,6.412803 610.418884,6.373190 609.823425,6.333579 
	C606.510071,5.928659 603.196655,5.523739 599.197876,5.064785 
	C598.328491,5.028123 598.144409,5.045496 597.960388,5.062871 
	C596.243530,4.797629 594.526733,4.532386 592.093262,4.158057 
	C590.901245,4.066097 590.425781,4.083223 589.950317,4.100348 
	C589.215149,4.056242 588.479980,4.012134 587.083252,3.704498 
	C584.264526,3.340505 582.107361,3.240042 579.950195,3.139580 
	C577.929260,3.075769 575.908325,3.011957 573.150513,2.677073 
	C569.275696,1.937335 566.137878,1.468668 563.000000,1.000001 
	C568.022095,1.000000 573.044189,1.000000 578.533142,0.999998 
z"/>
<path fill="#C50809" opacity="1.000000" stroke="none" 
	d="
M539.545898,1.000000 
	C538.552917,1.657953 537.138733,2.785764 535.652954,2.889531 
	C530.273743,3.265222 524.870544,3.297029 519.264038,2.871402 
	C519.034485,1.856126 519.017273,1.428063 519.000000,1.000000 
	C519.750000,1.000000 520.500000,1.000000 521.876587,1.296524 
	C525.002136,1.395366 527.501099,1.197683 530.000000,1.000000 
	C533.030579,1.000000 536.061218,1.000000 539.545898,1.000000 
z"/>
<path fill="#750405" opacity="1.000000" stroke="none" 
	d="
M518.600037,1.000000 
	C519.017273,1.428063 519.034485,1.856126 519.015686,2.606503 
	C518.543457,2.948738 518.107300,2.968660 516.891418,2.966339 
	C512.736877,3.283543 509.361969,3.622990 505.987091,3.962437 
	C504.938416,4.008543 503.889709,4.054647 502.110229,4.074821 
	C500.546326,4.311791 499.713165,4.574694 498.880035,4.837600 
	C497.673553,4.691278 496.467102,4.544953 494.911499,4.264244 
	C499.280273,3.414137 503.989471,2.631616 508.720215,2.014841 
	C510.673584,1.760174 512.673340,1.861224 514.825989,1.400245 
	C516.066711,1.000000 517.133362,1.000000 518.600037,1.000000 
z"/>
<path fill="#C50809" opacity="1.000000" stroke="none" 
	d="
M562.555847,1.000001 
	C566.137878,1.468668 569.275696,1.937335 572.717041,2.664506 
	C567.138672,2.514575 561.256714,2.106139 555.187378,1.348851 
	C557.370544,1.000000 559.741150,1.000000 562.555847,1.000001 
z"/>
<path fill="#750405" opacity="1.000000" stroke="none" 
	d="
M529.555847,1.000000 
	C527.501099,1.197683 525.002136,1.395366 522.251587,1.296524 
	C524.370544,1.000000 526.741150,1.000000 529.555847,1.000000 
z"/>
<path fill="#FFFDFD" opacity="1.000000" stroke="none" 
	d="
M657.131714,301.254730 
	C654.423950,319.316132 651.673767,336.929504 649.223328,354.584412 
	C648.697754,358.370972 647.276733,359.558380 643.499268,359.517151 
	C618.670166,359.246185 593.837830,359.270264 569.009155,358.973877 
	C564.876099,358.924561 562.906799,359.929688 561.794189,364.266296 
	C549.207458,413.325562 536.363220,462.318665 523.658386,511.347748 
	C521.136108,521.081604 519.902100,530.887573 521.609802,541.017456 
	C525.339844,563.144165 549.080750,580.891357 576.678223,573.507507 
	C578.775330,572.946411 581.001160,569.912354 581.715210,567.582825 
	C591.284302,536.362549 600.586121,505.060333 609.972839,473.784058 
	C615.910339,454.000549 621.928467,434.240997 627.779785,414.432129 
	C628.661011,411.448822 629.912781,410.053711 633.273254,410.063202 
	C674.936218,410.180847 716.599670,410.159698 758.262939,410.198608 
	C759.386719,410.199646 760.510254,410.473206 762.181030,410.691010 
	C761.615417,413.676575 761.190247,416.421997 760.569885,419.122589 
	C742.629333,497.223755 724.669617,575.320496 706.712219,653.417786 
	C695.400085,702.614502 684.062256,751.805420 672.825317,801.019287 
	C672.030945,804.498352 670.650818,805.889221 666.817871,805.876709 
	C624.488403,805.738403 582.158264,805.805725 539.828308,805.795227 
	C538.395752,805.794861 536.963257,805.560364 534.749939,805.366638 
	C546.088379,754.342957 557.300110,703.889709 568.714233,652.525513 
	C564.312988,652.786194 560.880554,652.913208 557.462036,653.204102 
	C532.727173,655.309021 508.030243,658.172485 483.252380,659.368713 
	C458.819031,660.548218 434.974518,656.505737 413.123016,644.731506 
	C387.380341,630.860596 374.952759,608.048584 371.018829,579.884460 
	C369.085754,566.044922 370.089203,552.580505 373.553864,538.857056 
	C388.724243,478.767639 403.224213,418.508942 417.952484,358.307983 
	C418.340424,356.722260 418.556641,355.094513 418.971344,352.843658 
	C416.536774,352.626373 414.475189,352.303101 412.410187,352.279388 
	C389.414673,352.015533 366.418762,351.700104 343.422485,351.656036 
	C339.171356,351.647888 337.619843,350.509491 337.570007,346.070587 
	C337.461243,336.387939 336.411285,338.329376 344.756317,335.163879 
	C397.366394,315.207062 443.206696,284.487335 484.875610,247.141220 
	C532.272156,204.661667 572.455261,155.843384 609.655823,104.454956 
	C613.022705,99.804062 616.257751,97.956444 621.970276,99.096664 
	C626.070374,99.915054 626.197205,101.619316 625.366089,104.917892 
	C620.400696,124.625786 615.559326,144.364899 610.669861,164.091949 
	C600.850098,203.710815 591.023376,243.327942 581.219299,282.950653 
	C580.945374,284.057800 580.895081,285.220276 580.623169,287.220093 
	C606.741272,287.220093 632.572937,287.220093 659.241821,287.220093 
	C658.466919,292.373077 657.831665,296.597321 657.131714,301.254730 
z"/>
<path fill="#983E40" opacity="1.000000" stroke="none" 
	d="
M808.984497,821.006287 
	C789.879272,835.306396 769.265015,847.100403 748.022766,857.877686 
	C716.669617,873.784668 683.684937,885.263123 649.585266,893.423706 
	C635.541748,896.784607 621.102295,898.490662 606.398865,900.947754 
	C608.429626,900.033081 610.835999,898.654053 613.389771,898.279053 
	C640.083252,894.359802 666.335083,888.755249 691.559814,878.896240 
	C704.540405,873.822937 717.872742,869.575195 730.602112,863.949463 
	C752.903809,854.093140 774.547546,842.906677 794.420654,828.580383 
	C798.583252,825.579651 803.015869,822.953491 807.776611,820.308838 
	C808.429504,820.715698 808.681213,820.896790 808.984497,821.006287 
z"/>
<path fill="#983E40" opacity="1.000000" stroke="none" 
	d="
M189.050278,729.976318 
	C169.227753,704.779541 152.318680,677.707397 138.746429,648.714539 
	C130.982330,632.129089 124.845985,614.781677 118.175674,597.378906 
	C118.374580,596.980530 118.872490,596.947937 118.872490,596.947937 
	C120.676147,601.523376 122.556213,606.070312 124.270699,610.678955 
	C133.339111,635.055054 144.264130,658.587830 157.938782,680.691040 
	C167.976974,696.916443 179.094437,712.474121 189.764008,728.859497 
	C189.616074,729.671570 189.367126,729.867126 189.050278,729.976318 
z"/>
<path fill="#A54C4D" opacity="1.000000" stroke="none" 
	d="
M397.925568,880.041931 
	C387.490845,876.015076 376.978363,872.177185 366.637665,867.921875 
	C345.409729,859.186401 325.370178,848.163940 306.071014,835.771545 
	C305.526123,835.421692 305.061584,834.946716 304.522980,834.216858 
	C310.831116,837.437927 317.052094,841.219971 323.542664,844.462280 
	C346.931824,856.146118 369.879608,868.798340 394.671661,877.458862 
	C396.673737,878.158325 398.732635,878.694946 400.567078,879.643799 
	C399.554565,880.000916 398.740051,880.021423 397.925568,880.041931 
z"/>
<path fill="#9E4949" opacity="1.000000" stroke="none" 
	d="
M974.640076,599.991699 
	C966.549866,622.535828 957.382996,644.621765 945.831604,665.631042 
	C940.670044,675.018555 934.926025,684.085693 929.148376,693.355225 
	C930.748535,689.610168 932.601868,685.785095 934.552551,682.010315 
	C943.206848,665.263306 952.245117,648.702271 960.426575,631.727966 
	C965.281677,621.654785 968.802002,610.938293 973.335327,600.216736 
	C974.046265,599.936096 974.343567,599.959229 974.640076,599.991699 
z"/>
<path fill="#9E4949" opacity="1.000000" stroke="none" 
	d="
M398.156067,880.333374 
	C398.740051,880.021423 399.554565,880.000916 400.777893,879.950256 
	C435.414948,891.057495 470.479156,898.213745 506.647003,902.337036 
	C507.021027,903.048035 507.002533,903.405518 506.984039,903.762939 
	C499.792755,902.779114 492.546844,902.087402 485.420837,900.754456 
	C467.141632,897.335327 448.839203,893.972961 430.697052,889.913147 
	C419.780731,887.470215 409.147186,883.763550 398.156067,880.333374 
z"/>
<path fill="#9E4949" opacity="1.000000" stroke="none" 
	d="
M928.170898,694.035583 
	C925.324219,699.095520 922.607849,704.561584 918.974670,709.328918 
	C907.363525,724.565125 895.412170,739.542114 883.248413,754.412476 
	C882.773315,753.451233 882.641907,752.696716 882.510498,751.942139 
	C889.896484,743.306396 897.551086,734.882629 904.586426,725.970093 
	C910.594727,718.358398 915.856995,710.160339 921.522217,702.274048 
	C923.531311,699.477173 925.755554,696.834839 928.170898,694.035583 
z"/>
<path fill="#D47E7E" opacity="1.000000" stroke="none" 
	d="
M882.279175,752.232544 
	C882.641907,752.696716 882.773315,753.451233 882.921997,754.459778 
	C881.753418,756.022095 880.567505,757.330383 878.915894,758.922729 
	C878.220642,759.418579 878.111572,759.680603 878.122986,759.992798 
	C876.394531,762.138733 874.871338,764.498413 872.900330,766.391846 
	C866.145813,772.880188 859.234192,779.204834 851.852356,785.601807 
	C850.800476,785.435181 850.278809,785.258667 849.757080,785.082153 
	C860.520691,774.229065 871.284302,763.376038 882.279175,752.232544 
z"/>
<path fill="#AC5A5C" opacity="1.000000" stroke="none" 
	d="
M507.445648,903.856812 
	C507.002533,903.405518 507.021027,903.048035 507.061554,902.424011 
	C523.633057,902.547485 540.181396,903.156433 556.732422,903.240540 
	C565.815979,903.286682 574.903931,902.447876 584.472168,902.318970 
	C584.982056,902.988342 585.009644,903.346741 585.037292,903.705200 
	C563.649963,903.822876 542.262756,903.950317 520.875305,904.050232 
	C516.552917,904.070435 512.229980,903.986572 507.445648,903.856812 
z"/>
<path fill="#9F4647" opacity="1.000000" stroke="none" 
	d="
M849.444336,785.122375 
	C850.278809,785.258667 850.800476,785.435181 851.550598,785.763428 
	C843.815063,793.014160 836.014832,800.309204 827.831665,807.145874 
	C822.026917,811.995300 815.705017,816.225647 809.299194,820.869263 
	C808.681213,820.896790 808.429504,820.715698 808.114868,820.258179 
	C815.265808,814.369446 822.710754,808.897522 829.744812,802.940369 
	C836.430542,797.278320 842.686584,791.108887 849.444336,785.122375 
z"/>
<path fill="#B75556" opacity="1.000000" stroke="none" 
	d="
M236.969513,782.027405 
	C230.962845,776.394714 224.783813,770.932251 219.002670,765.076904 
	C214.167053,760.179138 209.796753,754.821899 205.099304,749.026123 
	C204.968323,747.939880 204.958420,747.495483 205.032593,746.973267 
	C205.116669,746.895447 205.289062,746.744446 205.289062,746.744446 
	C207.033829,748.227173 208.945801,749.554138 210.495728,751.218323 
	C219.370193,760.747070 228.158600,770.356018 237.009827,780.618164 
	C237.018814,781.541565 236.994171,781.784485 236.969513,782.027405 
z"/>
<path fill="#7A1A1A" opacity="1.000000" stroke="none" 
	d="
M118.891022,596.566284 
	C118.872490,596.947937 118.374580,596.980530 118.124962,596.990112 
	C113.926880,583.480042 109.866562,569.991455 106.082291,556.425964 
	C104.456322,550.597412 103.403336,544.609009 102.007339,538.291931 
	C101.623764,535.613708 101.322876,533.336792 101.049263,530.677612 
	C101.646416,530.769531 102.585632,531.150208 102.732826,531.731384 
	C108.170631,553.204285 113.535103,574.695740 118.891022,596.566284 
z"/>
<path fill="#7D0606" opacity="1.000000" stroke="none" 
	d="
M795.064697,76.258972 
	C799.542175,78.584473 804.407959,80.810135 808.527954,83.999191 
	C820.464294,93.238403 832.101074,102.864639 843.961304,112.661316 
	C841.152405,110.997406 838.153442,109.123062 835.336975,107.005943 
	C821.901611,96.906525 808.515808,86.741127 795.064697,76.258972 
z"/>
<path fill="#87292A" opacity="1.000000" stroke="none" 
	d="
M991.107178,537.906372 
	C987.434021,552.875366 983.777405,567.843140 980.104736,582.807007 
	C979.634705,584.721802 979.081177,586.616028 977.978638,588.726196 
	C977.200500,588.891296 977.010010,588.849915 976.819458,588.808472 
	C978.893433,580.850769 981.064087,572.916687 983.015869,564.929138 
	C985.208435,555.956604 987.203308,546.935730 989.616821,537.692383 
	C990.335693,537.591553 990.722107,537.734314 991.108521,537.877075 
	C991.108521,537.877075 991.118713,537.903931 991.107178,537.906372 
z"/>
<path fill="#810506" opacity="1.000000" stroke="none" 
	d="
M991.071472,537.473999 
	C990.722107,537.734314 990.335693,537.591553 989.790344,537.333069 
	C991.960083,517.692444 994.288696,498.167542 997.122070,478.330933 
	C997.626770,478.019257 998.109741,478.061218 998.109741,478.061218 
	C998.069458,478.503662 998.029114,478.946075 997.695190,479.938293 
	C997.539978,481.637756 997.678345,482.787445 997.816650,483.937103 
	C996.850952,494.743958 996.126282,505.579773 994.833130,516.347290 
	C993.997253,523.306824 992.329346,530.166443 991.071472,537.473999 
z"/>
<path fill="#7A0507" opacity="1.000000" stroke="none" 
	d="
M107.545982,346.696045 
	C109.125343,338.851349 110.656281,330.843994 113.050423,323.103577 
	C116.047539,313.413757 119.753677,303.943237 123.462463,294.230286 
	C123.051338,297.117004 122.472710,300.193420 121.587433,303.178864 
	C117.580627,316.691162 113.500374,330.181763 109.399277,343.665802 
	C109.079315,344.717834 108.395447,345.659149 107.545982,346.696045 
z"/>
<path fill="#8C0B0A" opacity="1.000000" stroke="none" 
	d="
M94.946960,434.920868 
	C95.978012,420.599640 97.009056,406.278381 98.111786,391.540344 
	C98.676224,392.446350 99.671524,393.803741 99.583321,395.086639 
	C98.777992,406.800507 97.753181,418.498993 96.858147,430.207031 
	C96.391853,436.306610 96.057289,442.416229 95.337685,448.388733 
	C94.990425,443.811035 94.968697,439.365967 94.946960,434.920868 
z"/>
<path fill="#7D0606" opacity="1.000000" stroke="none" 
	d="
M174.552795,195.819687 
	C183.874268,183.306259 193.542892,170.814941 203.502686,158.197678 
	C203.791000,158.868210 204.122116,159.921326 203.736252,160.423462 
	C195.282211,171.424545 186.771881,182.382812 178.193237,193.287064 
	C177.359726,194.346527 176.010025,194.999893 174.552795,195.819687 
z"/>
<path fill="#790505" opacity="1.000000" stroke="none" 
	d="
M975.791870,311.017517 
	C979.265625,321.613892 982.806458,332.625916 985.943359,343.751831 
	C987.368896,348.808197 987.994568,354.090027 988.899902,359.713226 
	C987.473755,355.890686 986.027039,351.653839 984.809265,347.352234 
	C982.116821,337.841431 979.492126,328.310608 976.948608,318.759033 
	C976.317505,316.389252 976.101013,313.909119 975.791870,311.017517 
z"/>
<path fill="#810506" opacity="1.000000" stroke="none" 
	d="
M147.809677,238.967926 
	C151.681656,232.030258 155.344788,224.965012 159.483063,218.190002 
	C163.816406,211.095642 168.606094,204.280045 173.494293,197.211853 
	C173.790405,198.065323 174.169373,199.283264 173.730072,199.998978 
	C166.023834,212.553772 158.217590,225.047180 149.911362,237.894409 
	C148.863007,238.479263 148.336349,238.723587 147.809677,238.967926 
z"/>
<path fill="#750405" opacity="1.000000" stroke="none" 
	d="
M208.405731,153.792084 
	C210.229767,150.842758 212.072998,147.582123 214.591187,144.972839 
	C222.434113,136.846191 230.532715,128.966263 238.821213,120.770386 
	C238.540283,122.005753 238.338333,123.809273 237.342697,124.862556 
	C228.571899,134.141296 219.667221,143.293686 210.772247,152.454391 
	C210.221848,153.021210 209.419083,153.342987 208.405731,153.792084 
z"/>
<path fill="#790505" opacity="1.000000" stroke="none" 
	d="
M849.798157,118.463211 
	C850.752502,118.600723 852.191162,118.730103 852.985413,119.513138 
	C862.544373,128.937500 872.011780,138.454803 881.479675,147.971207 
	C881.785339,148.278397 881.841492,148.833908 882.036743,149.628632 
	C881.315918,149.723190 880.357849,149.674683 879.860168,149.171188 
	C869.869385,139.065109 859.931580,128.906631 849.798157,118.463211 
z"/>
<path fill="#990809" opacity="1.000000" stroke="none" 
	d="
M128.418106,282.724060 
	C133.542465,270.176727 138.993408,257.601501 144.767624,244.811707 
	C143.120316,249.922302 141.387390,255.351074 139.122452,260.548004 
	C135.866287,268.019257 132.222824,275.321686 128.418106,282.724060 
z"/>
<path fill="#790505" opacity="1.000000" stroke="none" 
	d="
M674.126709,18.952280 
	C684.161865,22.182417 694.203430,25.392984 704.227905,28.656099 
	C706.810608,29.496822 709.339539,30.502766 711.858215,31.839001 
	C710.376221,32.180798 708.813721,32.451641 707.500183,31.999485 
	C695.957764,28.026258 684.459656,23.924215 673.134155,19.473101 
	C673.588867,19.041342 673.857788,18.996813 674.126709,18.952280 
z"/>
<path fill="#810506" opacity="1.000000" stroke="none" 
	d="
M997.841980,425.977692 
	C997.888977,426.233398 997.936035,426.489075 997.933105,427.132965 
	C997.342712,426.571320 996.434204,425.664368 996.317810,424.665161 
	C994.862793,412.176208 993.514221,399.674774 992.172119,387.172943 
	C992.085693,386.367401 992.276672,385.532104 992.572327,384.424805 
	C993.877747,388.265015 995.400269,392.334778 995.923706,396.529205 
	C996.903564,404.380646 997.304260,412.304352 997.655090,420.879700 
	C997.523499,423.033508 997.682739,424.505585 997.841980,425.977692 
z"/>
<path fill="#750405" opacity="1.000000" stroke="none" 
	d="
M99.559608,387.604553 
	C100.238235,380.200928 101.117554,372.722260 102.339973,365.300079 
	C103.008163,361.243073 104.256805,357.281677 105.596909,353.107056 
	C104.830841,360.352203 103.802063,367.782745 102.556923,375.176849 
	C101.856979,379.333313 100.799683,383.429657 99.559608,387.604553 
z"/>
<path fill="#B45B5C" opacity="1.000000" stroke="none" 
	d="
M237.103699,782.333740 
	C236.994171,781.784485 237.018814,781.541565 237.087891,780.932739 
	C237.132355,780.566833 237.591339,780.761353 237.918793,781.114868 
	C238.462830,781.737549 238.737473,781.918823 239.070206,782.012146 
	C244.617340,786.848816 250.164490,791.685547 255.727905,797.020691 
	C255.530807,797.748962 255.276276,797.916077 254.980576,798.020447 
	C249.066345,792.893677 243.152115,787.766846 237.103699,782.333740 
z"/>
<path fill="#7A0507" opacity="1.000000" stroke="none" 
	d="
M944.925171,241.203598 
	C945.972168,241.487488 947.492188,241.928940 947.918762,242.867386 
	C952.032776,251.918015 955.962891,261.052246 959.991089,270.538269 
	C958.784729,269.016907 957.321716,267.224670 956.318420,265.204193 
	C952.429810,257.372833 948.687561,249.468781 944.925171,241.203598 
z"/>
<path fill="#790505" opacity="1.000000" stroke="none" 
	d="
M350.486816,45.795361 
	C356.792206,42.502640 363.454376,39.186089 370.192749,36.032467 
	C372.773407,34.824699 375.528290,33.989197 378.594513,32.962471 
	C378.288574,33.747738 377.751312,34.895161 376.870026,35.307667 
	C369.691650,38.667747 362.471741,41.942707 355.204803,45.106567 
	C353.902191,45.673702 352.324585,45.609299 350.486816,45.795361 
z"/>
<path fill="#810506" opacity="1.000000" stroke="none" 
	d="
M383.953186,30.865891 
	C392.039734,27.907717 400.126312,24.949545 408.916260,22.011955 
	C410.192810,22.076147 410.765991,22.119759 411.339172,22.163374 
	C407.295532,23.758471 403.280273,25.430742 399.200897,26.928555 
	C394.419983,28.683945 389.583313,30.287500 384.372559,31.682850 
	C383.967255,31.227818 383.960236,31.046856 383.953186,30.865891 
z"/>
<path fill="#7D0606" opacity="1.000000" stroke="none" 
	d="
M241.957993,118.889351 
	C248.367020,113.275375 254.776062,107.661400 261.532471,102.032639 
	C259.357117,104.692314 256.979065,107.524544 254.276550,110.002983 
	C250.536026,113.433372 246.551331,116.597527 242.323853,119.654724 
	C241.970337,119.252296 241.964172,119.070824 241.957993,118.889351 
z"/>
<path fill="#810506" opacity="1.000000" stroke="none" 
	d="
M284.341675,84.915466 
	C291.346222,79.967064 298.729767,75.009193 306.466064,70.052368 
	C302.422516,73.381172 298.125854,76.853180 293.593018,79.983208 
	C290.823181,81.895836 287.690430,83.282890 284.341675,84.915466 
z"/>
<path fill="#700203" opacity="1.000000" stroke="none" 
	d="
M998.490356,477.841858 
	C998.109741,478.061218 997.626770,478.019257 997.384888,478.019226 
	C997.335571,475.382477 997.528076,472.745728 997.840820,469.211395 
	C997.927856,458.115723 997.894531,447.917633 997.861267,437.719574 
	C997.780640,434.639130 997.699951,431.558716 997.752319,428.010040 
	C998.264282,428.549683 998.971863,429.557129 998.973145,430.565491 
	C998.993042,446.251099 998.921448,461.936829 998.490356,477.841858 
z"/>
<path fill="#A54C4D" opacity="1.000000" stroke="none" 
	d="
M285.890411,821.238037 
	C279.463287,816.837952 272.967529,812.142883 266.422119,807.119690 
	C272.855591,811.508728 279.338684,816.225891 285.890411,821.238037 
z"/>
<path fill="#790505" opacity="1.000000" stroke="none" 
	d="
M920.029419,199.299469 
	C924.368347,205.362473 928.683716,211.797272 933.046509,218.610748 
	C931.005493,216.342743 928.739380,213.814728 926.872559,211.019958 
	C924.419128,207.346985 922.280090,203.463989 920.029419,199.299469 
z"/>
<path fill="#810506" opacity="1.000000" stroke="none" 
	d="
M99.293686,512.928345 
	C98.049011,507.335541 96.980583,501.427246 96.004051,495.503784 
	C95.587082,492.974487 95.361870,490.413574 95.384399,487.444855 
	C96.075706,487.024078 96.432137,487.025482 96.788559,487.026886 
	C97.694756,495.553497 98.600945,504.080139 99.293686,512.928345 
z"/>
<path fill="#750405" opacity="1.000000" stroke="none" 
	d="
M626.148560,8.275436 
	C634.275757,9.417622 642.560486,10.897510 650.832153,12.801450 
	C642.648132,11.688047 634.477112,10.150594 626.148560,8.275436 
z"/>
<path fill="#810506" opacity="1.000000" stroke="none" 
	d="
M459.999664,9.159950 
	C464.826782,8.098716 469.643219,6.985047 474.485809,5.999829 
	C476.690460,5.551293 478.946777,5.356696 481.597687,5.310830 
	C482.015717,5.574739 482.001312,5.959730 482.001312,5.959730 
	C474.963562,7.332569 467.925812,8.705408 460.444489,9.847053 
	C460.000916,9.615857 459.999664,9.159948 459.999664,9.159950 
z"/>
<path fill="#7A0507" opacity="1.000000" stroke="none" 
	d="
M330.332733,56.071419 
	C336.307831,52.662872 342.668549,49.355209 349.389038,46.070168 
	C348.325562,47.261982 347.059937,48.754581 345.449432,49.539787 
	C340.611237,51.898685 335.638550,53.981674 330.332733,56.071419 
z"/>
<path fill="#8C0B0A" opacity="1.000000" stroke="none" 
	d="
M96.859810,486.560181 
	C96.432137,487.025482 96.075706,487.024078 95.450531,487.026001 
	C95.117493,483.353607 95.053200,479.677856 94.993088,475.077972 
	C95.064240,470.027924 95.131203,465.902008 95.198174,461.776123 
	C95.775803,469.881927 96.353432,477.987701 96.859810,486.560181 
z"/>
<path fill="#983E40" opacity="1.000000" stroke="none" 
	d="
M585.442810,903.751099 
	C585.009644,903.346741 584.982056,902.988342 584.930054,902.361633 
	C591.683289,901.583557 598.460999,901.073792 605.606201,900.747070 
	C601.370789,901.567261 596.766724,902.196167 592.165405,902.844910 
	C590.056885,903.142273 587.953857,903.478577 585.442810,903.751099 
z"/>
<path fill="#750405" opacity="1.000000" stroke="none" 
	d="
M883.112366,150.957687 
	C887.071899,155.719727 891.031494,160.481781 895.041626,165.613800 
	C890.775513,161.212814 886.458740,156.441864 882.353516,151.330200 
	C882.747559,150.978882 882.929932,150.968277 883.112366,150.957687 
z"/>
<path fill="#A54C4D" opacity="1.000000" stroke="none" 
	d="
M303.906738,833.245728 
	C298.189209,829.875793 292.374573,826.218506 286.516357,822.252808 
	C292.251740,825.615723 298.030670,829.287109 303.906738,833.245728 
z"/>
<path fill="#530101" opacity="1.000000" stroke="none" 
	d="
M95.200317,461.333496 
	C95.131203,465.902008 95.064240,470.027924 94.974701,474.622986 
	C94.632401,474.423004 94.033958,473.753754 94.034203,473.084717 
	C94.038818,460.503937 94.114349,447.923126 94.561005,435.131592 
	C94.968697,439.365967 94.990425,443.811035 95.100426,448.735535 
	C95.193283,453.106903 95.197868,456.998901 95.200317,461.333496 
z"/>
<path fill="#790505" opacity="1.000000" stroke="none" 
	d="
M962.966919,278.325287 
	C965.328613,283.148285 967.653320,288.373291 969.904053,294.026550 
	C967.530029,289.212311 965.229980,283.969788 962.966919,278.325287 
z"/>
<path fill="#750405" opacity="1.000000" stroke="none" 
	d="
M718.928894,35.505077 
	C724.200500,37.277775 729.589905,39.374981 735.211609,41.790245 
	C729.978149,40.015396 724.512451,37.922489 718.928894,35.505077 
z"/>
<path fill="#A54C4D" opacity="1.000000" stroke="none" 
	d="
M255.117981,798.325012 
	C255.276276,797.916077 255.530807,797.748962 255.869659,797.327637 
	C259.317749,800.095337 262.640350,803.054504 266.067413,806.315186 
	C262.533051,803.954285 258.894226,801.291931 255.117981,798.325012 
z"/>
<path fill="#810506" opacity="1.000000" stroke="none" 
	d="
M997.637451,438.091553 
	C997.894531,447.917633 997.927856,458.115723 997.905518,468.811005 
	C997.704468,459.026672 997.559082,448.745117 997.637451,438.091553 
z"/>
<path fill="#810506" opacity="1.000000" stroke="none" 
	d="
M757.954834,53.301060 
	C762.627136,55.392948 767.223694,57.838547 771.935059,60.624527 
	C767.326294,58.528194 762.602661,56.091484 757.954834,53.301060 
z"/>
<path fill="#AC5A5C" opacity="1.000000" stroke="none" 
	d="
M976.541138,589.040283 
	C977.010010,588.849915 977.200500,588.891296 977.683105,588.947571 
	C976.938232,592.390869 975.901245,595.819214 974.752136,599.619629 
	C974.343567,599.959229 974.046265,599.936096 973.528320,599.896973 
	C974.293274,596.338318 975.278015,592.805176 976.541138,589.040283 
z"/>
<path fill="#8C0B0A" opacity="1.000000" stroke="none" 
	d="
M773.035889,62.279617 
	C777.011597,64.363571 781.010132,66.793541 785.053284,69.591667 
	C781.084778,67.515091 777.071777,65.070358 773.035889,62.279617 
z"/>
<path fill="#B75556" opacity="1.000000" stroke="none" 
	d="
M200.987152,744.030151 
	C199.066269,741.906860 197.145386,739.783508 195.100403,737.023499 
	C194.965454,735.943054 194.954620,735.499268 195.027740,734.977600 
	C195.111679,734.899658 195.283737,734.748352 195.283722,734.748352 
	C197.211578,737.140076 199.139420,739.531799 201.067078,742.614136 
	C201.040329,743.546570 201.013748,743.788391 200.987152,744.030151 
z"/>
<path fill="#750405" opacity="1.000000" stroke="none" 
	d="
M482.448730,6.037572 
	C482.001312,5.959730 482.015717,5.574739 482.020660,5.382145 
	C485.840027,4.801731 489.654449,4.413910 493.957001,4.087543 
	C490.595459,4.804468 486.745819,5.459941 482.448730,6.037572 
z"/>
<path fill="#C50809" opacity="1.000000" stroke="none" 
	d="
M506.229340,4.224520 
	C509.361969,3.622990 512.736877,3.283543 516.564331,2.984823 
	C513.501770,3.512567 509.986664,3.999585 506.229340,4.224520 
z"/>
<path fill="#7A0507" opacity="1.000000" stroke="none" 
	d="
M960.070862,271.352417 
	C961.029602,273.063446 961.988464,275.166016 963.012695,277.638916 
	C962.075745,275.920807 961.073364,273.832367 960.070862,271.352417 
z"/>
<path fill="#A54C4D" opacity="1.000000" stroke="none" 
	d="
M189.174759,730.277222 
	C189.367126,729.867126 189.616074,729.671570 189.897125,729.169434 
	C190.579285,729.467102 191.161438,729.984863 191.890228,731.072754 
	C192.389877,732.080872 192.742905,732.518860 193.095932,732.956848 
	C193.095932,732.956848 193.039429,732.909119 193.040802,733.228516 
	C193.031479,733.991882 193.020798,734.435791 193.010101,734.879700 
	C191.773148,733.445862 190.536194,732.011963 189.174759,730.277222 
z"/>
<path fill="#C50809" opacity="1.000000" stroke="none" 
	d="
M580.213379,3.375017 
	C582.107361,3.240042 584.264526,3.340505 586.714905,3.698101 
	C584.830933,3.840307 582.653687,3.725381 580.213379,3.375017 
z"/>
<path fill="#810506" opacity="1.000000" stroke="none" 
	d="
M432.986664,15.159059 
	C432.986664,15.159060 433.417511,15.008204 434.039001,15.049468 
	C434.919006,15.157887 435.177490,15.225039 435.435974,15.292197 
	C433.773376,16.014929 432.110779,16.737654 430.204346,16.975323 
	C429.947876,16.293644 429.935242,16.097023 429.922607,15.900402 
	C429.922607,15.900402 430.000214,15.982969 430.286652,15.976954 
	C431.377625,15.700312 432.182129,15.429685 432.986664,15.159059 
z"/>
<path fill="#790505" opacity="1.000000" stroke="none" 
	d="
M973.765259,304.892151 
	C974.589966,306.256989 975.292908,307.963684 975.935913,310.096466 
	C975.131897,308.759674 974.387695,306.996826 973.765259,304.892151 
z"/>
<path fill="#990809" opacity="1.000000" stroke="none" 
	d="
M147.524475,239.076508 
	C148.336349,238.723587 148.863007,238.479263 149.652435,238.109802 
	C149.171249,239.035049 148.427338,240.085403 147.319672,241.049194 
	C147.050354,240.370117 147.144806,239.777603 147.524475,239.076508 
z"/>
<path fill="#7A0507" opacity="1.000000" stroke="none" 
	d="
M942.178223,235.380630 
	C942.979431,236.411896 943.782654,237.781265 944.686035,239.437714 
	C943.917603,238.389435 943.048950,237.054092 942.178223,235.380630 
z"/>
<path fill="#750405" opacity="1.000000" stroke="none" 
	d="
M969.845581,295.048279 
	C970.587341,295.840576 971.298584,297.046387 972.034546,298.618347 
	C971.311096,297.810272 970.563049,296.636047 969.845581,295.048279 
z"/>
<path fill="#790505" opacity="1.000000" stroke="none" 
	d="
M667.120972,16.954632 
	C668.079834,17.133667 669.038696,17.312700 670.215454,17.807823 
	C668.928284,18.019976 667.423096,17.916040 666.125732,17.444496 
	C666.595886,17.036137 666.858398,16.995384 667.120972,16.954632 
z"/>
<path fill="#7A0507" opacity="1.000000" stroke="none" 
	d="
M937.240601,227.402771 
	C938.037781,228.132660 938.844238,229.171982 939.720581,230.495972 
	C938.943542,229.757812 938.096680,228.735001 937.240601,227.402771 
z"/>
<path fill="#810506" opacity="1.000000" stroke="none" 
	d="
M454.996002,10.164382 
	C454.996002,10.164382 455.421722,10.009847 456.064270,10.007913 
	C457.262238,10.078924 457.817657,10.151871 458.373108,10.224817 
	C457.390350,10.640204 456.407562,11.055592 455.207336,11.043839 
	C454.989899,10.616697 454.996002,10.164382 454.996002,10.164382 
z"/>
<path fill="#7A0507" opacity="1.000000" stroke="none" 
	d="
M327.532410,58.153732 
	C327.876526,57.465450 328.575226,56.723980 329.624878,55.962631 
	C329.279572,56.662010 328.583313,57.381275 327.532410,58.153732 
z"/>
<path fill="#C50809" opacity="1.000000" stroke="none" 
	d="
M616.092163,7.388752 
	C616.809631,7.245932 617.684692,7.352479 618.785156,7.705740 
	C618.090271,7.847676 617.169922,7.742898 616.092163,7.388752 
z"/>
<path fill="#790505" opacity="1.000000" stroke="none" 
	d="
M914.427490,192.384735 
	C915.113098,192.827042 915.906555,193.537277 916.818481,194.529587 
	C916.136475,194.091995 915.335938,193.372330 914.427490,192.384735 
z"/>
<path fill="#790505" opacity="1.000000" stroke="none" 
	d="
M935.148193,223.343811 
	C935.728333,224.048187 936.332581,225.059860 936.907837,226.382690 
	C936.309998,225.679596 935.741150,224.665359 935.148193,223.343811 
z"/>
<path fill="#A54C4D" opacity="1.000000" stroke="none" 
	d="
M201.031372,744.339294 
	C201.013748,743.788391 201.040329,743.546570 201.136963,742.944580 
	C201.207031,742.584290 201.593216,742.785400 201.809540,743.212402 
	C202.384583,744.076721 202.743271,744.513916 203.101959,744.951172 
	C203.101959,744.951172 203.052719,744.896545 203.048981,745.220276 
	C203.032471,745.992188 203.019699,746.440369 203.006958,746.888550 
	C202.363159,746.141846 201.719376,745.395142 201.031372,744.339294 
z"/>
<path fill="#C50809" opacity="1.000000" stroke="none" 
	d="
M609.917847,6.589385 
	C610.418884,6.373190 611.014282,6.412803 611.817261,6.677731 
	C611.353943,6.883761 610.683105,6.864476 609.917847,6.589385 
z"/>
<path fill="#B75556" opacity="1.000000" stroke="none" 
	d="
M203.008606,746.936829 
	C203.019699,746.440369 203.032471,745.992188 203.083649,745.208069 
	C203.770218,745.303345 204.418365,745.734558 205.177795,746.455078 
	C205.289062,746.744446 205.116669,746.895447 204.726379,746.953369 
	C203.926331,747.003601 203.516571,746.995911 203.106812,746.988220 
	C203.106812,746.988220 203.010254,746.985107 203.008606,746.936829 
z"/>
<path fill="#790505" opacity="1.000000" stroke="none" 
	d="
M933.032654,219.238342 
	C933.558044,219.679764 934.107239,220.450119 934.721802,221.508087 
	C934.210266,221.052872 933.633362,220.310059 933.032654,219.238342 
z"/>
<path fill="#B75556" opacity="1.000000" stroke="none" 
	d="
M193.011383,734.930603 
	C193.020798,734.435791 193.031479,733.991882 193.075195,733.214966 
	C193.758179,733.311890 194.408112,733.741760 195.170883,734.459961 
	C195.283737,734.748352 195.111679,734.899658 194.723694,734.955627 
	C193.928619,735.002380 193.521530,734.993164 193.114426,734.983948 
	C193.114426,734.983948 193.012634,734.981506 193.011383,734.930603 
z"/>
<path fill="#750405" opacity="1.000000" stroke="none" 
	d="
M622.006348,7.860055 
	C622.006348,7.860055 622.003113,7.512259 622.001770,7.338358 
	C623.257263,7.190986 624.514038,7.217515 625.906311,7.600364 
	C625.886414,8.083901 625.731018,8.211118 624.934937,8.277245 
	C623.531555,8.097454 622.768982,7.978754 622.006348,7.860055 
z"/>
<path fill="#810506" opacity="1.000000" stroke="none" 
	d="
M418.253387,20.044947 
	C417.622070,20.481945 416.990753,20.918945 416.162537,20.899630 
	C415.956299,20.263891 415.946899,20.084469 415.937500,19.905045 
	C415.937500,19.905045 415.993652,19.980881 416.340485,19.981964 
	C417.209351,20.003679 417.731354,20.024315 418.253387,20.044947 
z"/>
<path fill="#790505" opacity="1.000000" stroke="none" 
	d="
M421.972412,18.238209 
	C422.892181,17.741739 424.233917,17.377861 426.028137,17.077854 
	C425.118530,17.551416 423.756470,17.961109 421.972412,18.238209 
z"/>
<path fill="#750405" opacity="1.000000" stroke="none" 
	d="
M659.009705,15.202862 
	C660.328430,15.282647 661.647095,15.362432 663.206299,15.779478 
	C662.249878,16.105743 661.052979,16.094749 659.432739,15.786537 
	C659.009338,15.489319 659.009705,15.202861 659.009705,15.202862 
z"/>
<path fill="#790505" opacity="1.000000" stroke="none" 
	d="
M658.637817,15.137444 
	C659.009705,15.202861 659.009338,15.489319 659.009521,15.630698 
	C657.925171,15.687995 656.840515,15.603912 655.527466,15.313829 
	C656.288025,15.095897 657.276978,15.083962 658.637817,15.137444 
z"/>
<path fill="#810506" opacity="1.000000" stroke="none" 
	d="
M437.004333,14.158798 
	C437.004333,14.158798 437.429260,14.009051 438.045715,14.049456 
	C438.919128,14.156881 439.176025,14.223902 439.432953,14.290922 
	C438.744598,14.675242 438.056244,15.059564 437.177612,15.041674 
	C436.987335,14.639463 437.004333,14.158798 437.004333,14.158798 
z"/>
<path fill="#810506" opacity="1.000000" stroke="none" 
	d="
M441.000824,13.159402 
	C441.000824,13.159402 441.422333,13.006996 442.051178,13.057138 
	C442.945312,13.182337 443.210571,13.257393 443.475830,13.332446 
	C442.773499,13.701967 442.071167,14.071492 441.178101,14.037981 
	C440.987396,13.634945 441.000824,13.159402 441.000824,13.159402 
z"/>
<path fill="#810506" opacity="1.000000" stroke="none" 
	d="
M448.372986,12.225638 
	C447.702911,12.617529 447.032837,13.009415 446.163025,12.936962 
	C445.950165,12.281305 445.937103,12.089987 445.924011,11.898668 
	C445.924011,11.898668 445.998199,11.981519 446.362488,11.989474 
	C447.275482,12.073498 447.824249,12.149566 448.372986,12.225638 
z"/>
<path fill="#790505" opacity="1.000000" stroke="none" 
	d="
M445.547882,11.942801 
	C445.937103,12.089987 445.950165,12.281305 445.971008,12.760441 
	C445.351166,13.135452 444.723633,13.222645 443.785950,13.321143 
	C443.210571,13.257393 442.945312,13.182337 442.273682,13.030394 
	C442.968811,12.631314 444.070282,12.309123 445.547882,11.942801 
z"/>
<path fill="#810506" opacity="1.000000" stroke="none" 
	d="
M449.995880,11.165386 
	C449.995880,11.165386 450.424896,11.012146 451.050842,11.055799 
	C451.937836,11.171819 452.198883,11.244184 452.459900,11.316544 
	C451.761444,11.678535 451.062988,12.040532 450.177917,12.004604 
	C449.991333,11.606680 449.995880,11.165386 449.995880,11.165386 
z"/>
<path fill="#790505" opacity="1.000000" stroke="none" 
	d="
M449.621307,11.087646 
	C449.995880,11.165386 449.991333,11.606680 449.987427,11.827585 
	C449.625549,12.105492 449.267578,12.162491 448.641296,12.222563 
	C447.824249,12.149566 447.275482,12.073498 446.314697,11.961027 
	C447.017365,11.619719 448.132050,11.314813 449.621307,11.087646 
z"/>
<path fill="#790505" opacity="1.000000" stroke="none" 
	d="
M452.774170,11.316929 
	C452.198883,11.244184 451.937836,11.171819 451.276886,11.027580 
	C451.998474,10.640039 453.119995,10.324373 454.618774,10.086544 
	C454.996002,10.164382 454.989899,10.616697 454.984161,10.843203 
	C454.348419,11.152242 453.718445,11.234776 452.774170,11.316929 
z"/>
<path fill="#790505" opacity="1.000000" stroke="none" 
	d="
M458.646393,10.225924 
	C457.817657,10.151871 457.262238,10.078924 456.289062,9.980673 
	C456.995300,9.639235 458.119263,9.323102 459.621460,9.083460 
	C459.999664,9.159948 460.000916,9.615857 460.003906,9.844336 
	C459.644501,10.124220 459.282104,10.175626 458.646393,10.225924 
z"/>
<path fill="#C50809" opacity="1.000000" stroke="none" 
	d="
M621.744080,7.914366 
	C622.768982,7.978754 623.531555,8.097454 624.648193,8.369399 
	C623.802063,8.536111 622.601990,8.549578 621.182251,8.331932 
	C621.135803,8.056771 621.308838,8.012724 621.744080,7.914366 
z"/>
<path fill="#790505" opacity="1.000000" stroke="none" 
	d="
M383.570648,30.922932 
	C383.960236,31.046856 383.967255,31.227818 383.983795,31.679922 
	C383.129089,32.078758 382.264832,32.206459 380.976013,32.218018 
	C381.430328,31.727909 382.309235,31.353939 383.570648,30.922932 
z"/>
<path fill="#750405" opacity="1.000000" stroke="none" 
	d="
M411.584442,22.056507 
	C410.765991,22.119759 410.192810,22.076147 409.189301,22.033108 
	C409.727081,21.692453 410.695190,21.351227 412.090454,21.073963 
	C412.288300,21.408501 412.059021,21.679071 411.584442,22.056507 
z"/>
<path fill="#790505" opacity="1.000000" stroke="none" 
	d="
M917.178406,195.325104 
	C917.696960,195.467941 918.226624,195.889969 918.776855,196.569702 
	C918.261414,196.419693 917.725464,196.012009 917.178406,195.325104 
z"/>
<path fill="#750405" opacity="1.000000" stroke="none" 
	d="
M415.556030,19.949350 
	C415.946899,20.084469 415.956299,20.263891 415.973206,20.712658 
	C415.126709,21.079346 414.272614,21.176685 412.991119,21.196787 
	C413.433960,20.744251 414.304260,20.368954 415.556030,19.949350 
z"/>
<path fill="#750405" opacity="1.000000" stroke="none" 
	d="
M673.943054,18.589252 
	C673.857788,18.996813 673.588867,19.041342 672.920044,19.185345 
	C671.967590,19.073700 671.414978,18.862577 670.682312,18.399042 
	C671.587952,18.173161 672.673645,18.199692 673.943054,18.589252 
z"/>
<path fill="#C50809" opacity="1.000000" stroke="none" 
	d="
M499.221954,4.901813 
	C499.713165,4.574694 500.546326,4.311791 501.718140,4.108986 
	C501.225830,4.434732 500.394836,4.700380 499.221954,4.901813 
z"/>
<path fill="#750405" opacity="1.000000" stroke="none" 
	d="
M666.936768,16.590282 
	C666.858398,16.995384 666.595886,17.036137 665.942688,17.168877 
	C664.983643,17.057205 664.415405,16.853542 663.666626,16.390989 
	C664.574890,16.163376 665.663757,16.194653 666.936768,16.590282 
z"/>
<path fill="#790505" opacity="1.000000" stroke="none" 
	d="
M429.544006,15.943830 
	C429.935242,16.097023 429.947876,16.293644 429.964935,16.786259 
	C429.119751,17.143373 428.270142,17.204496 426.996277,17.192829 
	C427.436523,16.742445 428.300964,16.364851 429.544006,15.943830 
z"/>
<path fill="#790505" opacity="1.000000" stroke="none" 
	d="
M436.648438,14.080629 
	C437.004333,14.158798 436.987335,14.639463 436.973389,14.880163 
	C436.620392,15.171700 436.281281,15.222538 435.689087,15.282784 
	C435.177490,15.225039 434.919006,15.157887 434.265686,15.022778 
	C434.678070,14.637370 435.485321,14.319916 436.648438,14.080629 
z"/>
<path fill="#790505" opacity="1.000000" stroke="none" 
	d="
M440.645844,13.083012 
	C441.000824,13.159402 440.987396,13.634945 440.975708,13.873135 
	C440.623260,14.164137 440.282562,14.216949 439.687378,14.280340 
	C439.176025,14.223902 438.919128,14.156881 438.269470,14.023335 
	C438.681458,13.640081 439.486176,13.323352 440.645844,13.083012 
z"/>
<path fill="#750405" opacity="1.000000" stroke="none" 
	d="
M971.879517,299.311157 
	C972.358276,299.719147 972.683289,300.487701 973.029053,301.612610 
	C972.879089,302.041107 972.708374,302.113190 972.269470,302.092773 
	C972.001343,302.000214 971.993286,301.994507 971.993286,301.994507 
	C971.904175,301.220215 971.815002,300.445953 971.879517,299.311157 
z"/>
<path fill="#750405" opacity="1.000000" stroke="none" 
	d="
M896.076416,167.241150 
	C896.611511,167.396561 897.179382,167.848679 897.771484,168.572998 
	C897.233521,168.409393 896.671326,167.973618 896.076416,167.241150 
z"/>
<path fill="#7D0606" opacity="1.000000" stroke="none" 
	d="
M845.052429,114.222107 
	C845.582275,114.368668 846.162415,114.823006 846.833496,115.534279 
	C846.317200,115.370773 845.709961,114.950333 845.052429,114.222107 
z"/>
<path fill="#8C0B0A" opacity="1.000000" stroke="none" 
	d="
M785.168274,70.134178 
	C785.584656,70.020493 786.160339,70.152260 786.844910,70.554848 
	C786.411682,70.676987 785.869690,70.528313 785.168274,70.134178 
z"/>
<path fill="#7D0606" opacity="1.000000" stroke="none" 
	d="
M793.308105,75.399094 
	C793.702515,75.267799 794.274536,75.345154 794.964905,75.705154 
	C794.550720,75.861122 794.018188,75.734436 793.308105,75.399094 
z"/>
<path fill="#B75556" opacity="1.000000" stroke="none" 
	d="
M203.105896,744.645630 
	C202.743271,744.513916 202.384583,744.076721 201.983505,743.343384 
	C202.330704,743.478210 202.720276,743.909119 203.105896,744.645630 
z"/>
<path fill="#750405" opacity="1.000000" stroke="none" 
	d="
M972.884094,302.306519 
	C973.353516,302.551056 973.676086,303.150482 973.939087,304.138641 
	C973.498779,303.905365 973.118042,303.283356 972.884094,302.306519 
z"/>
<path fill="#B75556" opacity="1.000000" stroke="none" 
	d="
M193.097687,732.654602 
	C192.742905,732.518860 192.389877,732.080872 192.003693,731.347412 
	C192.346832,731.485413 192.723129,731.918884 193.097687,732.654602 
z"/>
<path fill="#750405" opacity="1.000000" stroke="none" 
	d="
M418.970306,19.215637 
	C419.258392,18.742262 419.964325,18.372622 421.097107,18.058495 
	C420.812012,18.515795 420.100098,18.917583 418.970306,19.215637 
z"/>
<path fill="#750405" opacity="1.000000" stroke="none" 
	d="
M241.601959,118.941116 
	C241.964172,119.070824 241.970337,119.252296 241.986191,119.705803 
	C241.452026,120.090630 240.908173,120.203415 239.956711,120.213394 
	C240.114700,119.738022 240.680313,119.365456 241.601959,118.941116 
z"/>
<path fill="#C50809" opacity="1.000000" stroke="none" 
	d="
M590.110229,4.306581 
	C590.425781,4.083223 590.901245,4.066097 591.724854,4.134582 
	C591.472046,4.317733 590.871033,4.415274 590.110229,4.306581 
z"/>
<path fill="#750405" opacity="1.000000" stroke="none" 
	d="
M418.376923,19.826862 
	C417.731354,20.024315 417.209351,20.003679 416.298218,19.960987 
	C416.532593,19.626543 417.156067,19.314159 418.172241,19.056709 
	C418.543427,19.277351 418.521942,19.443062 418.376923,19.826862 
z"/>
<path fill="#7A0507" opacity="1.000000" stroke="none" 
	d="
M737.763245,43.455017 
	C738.308411,43.221375 739.126648,43.315941 740.197510,43.753036 
	C739.645569,43.991451 738.840942,43.887341 737.763245,43.455017 
z"/>
<path fill="#7A0507" opacity="1.000000" stroke="none" 
	d="
M940.245789,232.209656 
	C940.458069,232.033203 940.669006,232.135330 940.807617,232.551346 
	C940.579895,232.679855 940.416260,232.554199 940.245789,232.209656 
z"/>
<path fill="#990809" opacity="1.000000" stroke="none" 
	d="
M146.414093,242.336411 
	C146.183517,242.054047 146.239777,241.608795 146.630615,241.060699 
	C146.877106,241.363083 146.789017,241.768295 146.414093,242.336411 
z"/>
<path fill="#7D0606" opacity="1.000000" stroke="none" 
	d="
M844.052368,113.214500 
	C844.314392,113.105766 844.626404,113.281929 845.014099,113.726868 
	C844.760620,113.830231 844.431458,113.664818 844.052368,113.214500 
z"/>
<path fill="#790505" opacity="1.000000" stroke="none" 
	d="
M883.027771,150.698364 
	C882.929932,150.968277 882.747559,150.978882 882.291504,150.994980 
	C881.982849,150.824097 881.947754,150.647736 881.966492,150.207123 
	C882.328003,150.108246 882.635559,150.273636 883.027771,150.698364 
z"/>
<path fill="#B75556" opacity="1.000000" stroke="none" 
	d="
M238.971939,781.774658 
	C238.737473,781.918823 238.462830,781.737549 238.129044,781.248779 
	C238.299103,781.198486 238.586380,781.367859 238.971939,781.774658 
z"/>
<path fill="#790505" opacity="1.000000" stroke="none" 
	d="
M919.235840,198.229370 
	C919.493103,198.024567 919.756714,198.181808 920.003418,198.723450 
	C919.774719,198.861359 919.526550,198.689194 919.235840,198.229370 
z"/>
<path fill="#990809" opacity="1.000000" stroke="none" 
	d="
M145.438141,244.268692 
	C145.228363,244.006500 145.329742,243.524948 145.756317,242.826416 
	C145.970764,243.089417 145.860031,243.569366 145.438141,244.268692 
z"/>
<path fill="#C50809" opacity="1.000000" stroke="none" 
	d="
M598.059570,5.221295 
	C598.144409,5.045496 598.328491,5.028123 598.785095,5.063827 
	C598.757996,5.204510 598.458374,5.292116 598.059570,5.221295 
z"/>
<path fill="#810506" opacity="1.000000" stroke="none" 
	d="
M754.689941,51.457821 
	C754.973145,51.221352 755.467773,51.329060 756.196533,51.761398 
	C755.920837,51.991352 755.411133,51.896675 754.689941,51.457821 
z"/>
<path fill="#8C0B0A" opacity="1.000000" stroke="none" 
	d="
M772.026855,61.245399 
	C772.339600,61.109779 772.650635,61.274498 773.012329,61.711895 
	C772.717102,61.838295 772.371155,61.692017 772.026855,61.245399 
z"/>
<path fill="#810506" opacity="1.000000" stroke="none" 
	d="
M756.617188,52.422867 
	C756.923523,52.168606 757.377808,52.230755 757.941467,52.631603 
	C757.622314,52.893291 757.193726,52.816284 756.617188,52.422867 
z"/>
<path fill="#810506" opacity="1.000000" stroke="none" 
	d="
M735.708740,42.441750 
	C735.975525,42.229351 736.468079,42.338104 737.191467,42.772911 
	C736.926392,42.986946 736.430420,42.874920 735.708740,42.441750 
z"/>
<path fill="#790505" opacity="1.000000" stroke="none" 
	d="
M972.005554,302.005463 
	C972.009766,302.010712 971.814880,302.421539 971.814880,302.421539 
	C971.814880,302.421539 971.775818,302.100281 971.884521,302.047394 
	C971.993286,301.994507 972.001343,302.000214 972.005554,302.005463 
z"/>
<path fill="#810506" opacity="1.000000" stroke="none" 
	d="
M752.687134,50.458477 
	C752.971313,50.221207 753.466553,50.329334 754.193970,50.763996 
	C753.916809,50.994976 753.407532,50.899426 752.687134,50.458477 
z"/>
<path fill="#810506" opacity="1.000000" stroke="none" 
	d="
M750.689575,49.452724 
	C750.972778,49.219818 751.467285,49.329384 752.194580,49.764778 
	C751.918457,49.992134 751.409668,49.893665 750.689575,49.452724 
z"/>
<path fill="#810506" opacity="1.000000" stroke="none" 
	d="
M748.695679,48.456791 
	C748.972229,48.226879 749.466003,48.333725 750.193848,48.764160 
	C749.922913,48.989681 749.417847,48.891617 748.695679,48.456791 
z"/>
<path fill="#810506" opacity="1.000000" stroke="none" 
	d="
M745.520325,48.411110 
	C745.546265,48.396675 745.494385,48.425549 745.520325,48.411110 
z"/>
<path fill="#810506" opacity="1.000000" stroke="none" 
	d="
M746.692383,47.444328 
	C746.972351,47.217823 747.466858,47.328548 748.191772,47.766998 
	C747.917053,47.990334 747.412048,47.885948 746.692383,47.444328 
z"/>
<path fill="#810506" opacity="1.000000" stroke="none" 
	d="
M744.687866,46.448769 
	C744.973389,46.214264 745.468445,46.325439 746.198120,46.761810 
	C745.920898,46.989483 745.409119,46.891960 744.687866,46.448769 
z"/>
<path fill="#810506" opacity="1.000000" stroke="none" 
	d="
M742.685913,45.455742 
	C742.972412,45.216198 743.467468,45.325794 744.198059,45.759216 
	C743.920593,45.990318 743.407532,45.897598 742.685913,45.455742 
z"/>
<path fill="#810506" opacity="1.000000" stroke="none" 
	d="
M740.686523,44.454269 
	C740.972961,44.215988 741.467651,44.325871 742.196655,44.760487 
	C741.918884,44.990955 741.406860,44.896694 740.686523,44.454269 
z"/>
<path fill="#810506" opacity="1.000000" stroke="none" 
	d="
M379.284546,33.016899 
	C379.237366,32.657326 379.528778,32.337379 380.174347,32.063675 
	C380.226715,32.425453 379.924927,32.740990 379.284546,33.016899 
z"/>
<path fill="#A54C4D" opacity="1.000000" stroke="none" 
	d="
M193.193893,735.257690 
	C193.521530,734.993164 193.928619,735.002380 194.639771,735.033569 
	C194.954620,735.499268 194.965454,735.943054 194.958557,736.719360 
	C194.385010,736.545044 193.829178,736.038269 193.193893,735.257690 
z"/>
<path fill="#A54C4D" opacity="1.000000" stroke="none" 
	d="
M203.190002,747.260315 
	C203.516571,746.995911 203.926331,747.003601 204.642303,747.031250 
	C204.958420,747.495483 204.968323,747.939880 204.959122,748.717041 
	C204.384415,748.544128 203.828796,748.038269 203.190002,747.260315 
z"/>
<path fill="#9E4949" opacity="1.000000" stroke="none" 
	d="
M878.339294,759.916504 
	C878.111572,759.680603 878.220642,759.418579 878.648926,759.117920 
	C878.945679,759.369751 878.848328,759.640137 878.339294,759.916504 
z"/>
<path fill="#700203" opacity="1.000000" stroke="none" 
	d="
M997.915039,425.572205 
	C997.682739,424.505585 997.523499,423.033508 997.591003,421.318115 
	C997.874512,422.438751 997.931274,423.802734 997.915039,425.572205 
z"/>
<path fill="#700203" opacity="1.000000" stroke="none" 
	d="
M997.904053,483.554321 
	C997.678345,482.787445 997.539978,481.637756 997.618774,480.263306 
	C997.887878,481.082855 997.939697,482.127197 997.904053,483.554321 
z"/>
<path fill="#790505" opacity="1.000000" stroke="none" 
	d="
M432.636353,15.081347 
	C432.182129,15.429685 431.377625,15.700312 430.238464,15.947266 
	C430.697876,15.616941 431.491943,15.310289 432.636353,15.081347 
z"/>
</svg>